<svg width="43" height="60" viewBox="0 0 43 60" fill="none" xmlns="http://www.w3.org/2000/svg">
<path d="M39.4501 28.6513C39.5919 29.0451 39.7494 29.4389 39.7809 29.8642C39.7494 30.0532 39.8439 30.2422 39.8281 30.4154C39.8124 30.5257 39.9069 30.5257 39.9699 30.573C39.9699 30.5887 39.9856 30.5887 39.9699 30.6045C39.9856 30.7935 39.9699 30.9825 40.0014 31.1715C40.0801 31.77 40.2534 32.3528 40.2219 32.9514C40.2062 33.3609 40.2219 33.7862 40.2219 34.1957C40.2219 34.6052 40.1904 35.0148 40.1431 35.4401C40.0959 35.8338 39.9699 36.1961 39.9069 36.5741C39.7966 37.1412 39.6391 37.6925 39.4658 38.2438C39.2768 38.8738 39.0406 39.4881 38.7885 40.1024C38.5523 40.6694 38.2688 41.2207 38.001 41.7878C37.9222 41.9453 37.8592 42.1028 37.7805 42.2603C37.3552 42.9533 36.9614 43.6779 36.4574 44.3079C36.0636 44.812 35.7171 45.3633 35.276 45.8358C35.087 46.0406 34.8665 46.2453 34.6933 46.4658C34.394 46.8596 34.0317 47.1746 33.6537 47.4739C32.9606 48.0567 32.2518 48.5922 31.4643 49.049C31.039 49.2853 30.6295 49.5373 30.1884 49.7421C29.2749 50.1831 28.3298 50.5296 27.3532 50.8132C26.7704 50.9864 26.1719 51.1439 25.5733 51.2384C24.9591 51.3329 24.3448 51.5062 23.699 51.459C23.6517 51.459 23.6202 51.459 23.573 51.459C22.4704 51.6322 21.352 51.5535 20.2495 51.522C19.3201 51.5062 18.3908 51.4117 17.4615 51.2542C17.3198 51.2384 17.2095 51.1439 17.0677 51.1124C16.8315 51.0652 16.5952 51.0809 16.3589 51.0337C15.5084 50.8132 14.6736 50.5926 13.8545 50.2776C13.3505 50.0886 12.8622 49.8523 12.3739 49.6318C12.1219 49.5058 11.8699 49.301 11.5548 49.3325C11.5391 49.2695 11.4918 49.2223 11.4288 49.175C11.2713 49.0805 11.0981 49.0175 10.9563 48.9073C10.1687 48.3717 9.38118 47.8519 8.65663 47.2219C8.04234 46.6706 7.44379 46.1193 6.8925 45.4893C6.64049 45.19 6.41997 44.875 6.1207 44.5915C5.88443 44.3552 5.74267 44.0244 5.55366 43.7251C5.15988 43.1266 4.84486 42.4808 4.51408 41.8508C4.15181 41.142 3.85253 40.4017 3.61627 39.6299C3.45876 39.0943 3.30124 38.5588 3.17524 38.0232C3.06498 37.5192 2.95472 37.0152 2.89172 36.5111C2.82871 35.9913 2.68695 35.4873 2.68695 34.9518C2.68695 34.621 2.65545 34.2902 2.60819 33.9594C2.52944 33.3136 2.46643 32.6521 2.52944 31.9906C2.59244 31.329 2.6712 30.6832 2.82871 30.0374C3.06498 29.0923 3.33275 28.163 3.66352 27.2495C3.86829 26.6509 4.16756 26.0839 4.43533 25.5168C4.62434 25.1073 4.7661 24.6663 5.00237 24.2725C5.22288 23.8945 5.38039 23.4692 5.60091 23.1069C5.82143 22.7289 5.97894 22.3194 6.19945 21.9413C6.48297 21.4688 6.73499 20.9805 7.03426 20.508C7.41229 19.9094 7.77457 19.3109 8.15259 18.7123C8.48337 18.1926 8.79839 17.6728 9.16067 17.1845C9.74346 16.3654 10.342 15.5464 10.909 14.7116C11.3658 14.05 11.8541 13.42 12.2794 12.7427C12.6102 12.2229 13.0039 11.7661 13.3505 11.2621C13.6182 10.884 13.9333 10.5218 14.1853 10.128C14.453 9.71845 14.7366 9.32467 15.0201 8.91514C15.5556 8.14334 16.1227 7.37153 16.674 6.59972C17.1307 5.96968 17.5875 5.35539 18.0443 4.74109C18.4381 4.1898 18.8476 3.63851 19.2256 3.07147C19.5407 2.59894 19.8557 2.14215 20.2022 1.68537C20.47 1.33885 20.722 0.97657 20.9898 0.645796C21.163 0.441032 21.2733 0.173262 21.5096 0C21.9663 0.661548 22.4231 1.29159 22.8484 1.93739C23.2422 2.50443 23.6202 3.10297 24.014 3.67001C24.392 4.2213 24.77 4.77259 25.1638 5.33963C25.4788 5.81217 25.7939 6.26895 26.1089 6.74149C26.5342 7.35578 26.9594 7.98582 27.3847 8.60012C27.7313 9.0884 28.0778 9.59244 28.4086 10.0807C28.6291 10.3957 28.8811 10.695 29.0701 11.0258C29.4324 11.6716 29.9207 12.2386 30.2987 12.8687C30.5665 13.294 30.8815 13.6877 31.1808 14.113C31.48 14.5383 31.7635 14.9636 32.0471 15.3889C32.3148 15.7669 32.5826 16.1449 32.8504 16.5229C33.1654 16.964 33.4647 17.4208 33.7954 17.8618C34.0475 18.1926 34.2522 18.5391 34.5357 18.8541C34.7248 19.0746 34.8665 19.3424 35.024 19.5787C35.4808 20.2402 35.8903 20.949 36.2999 21.6421C36.6306 22.1933 36.9457 22.7604 37.2449 23.3274C37.4497 23.7212 37.6545 24.115 37.8277 24.5088C38.127 25.2018 38.4105 25.8949 38.6783 26.6037C38.7413 26.7769 38.7886 26.9817 38.9618 27.1077C38.9776 27.1392 38.9933 27.1707 39.0091 27.2022C38.9776 27.4385 39.0563 27.659 39.1193 27.8638C39.1823 28.0528 39.1981 28.289 39.4028 28.415V28.4308C39.4028 28.5096 39.3556 28.6041 39.4501 28.6513ZM27.4477 13.3097C27.4635 13.2152 27.432 13.1522 27.3847 13.0734C27.0855 12.6482 26.7862 12.2229 26.5184 11.7661C26.1089 11.1046 25.6364 10.506 25.2426 9.84446C25.0693 9.54519 24.8645 9.27742 24.6755 8.9939C24.392 8.60012 24.14 8.17484 23.8565 7.76531C23.5415 7.32428 23.2422 6.86749 22.9272 6.42646C22.7224 6.14294 22.5649 5.82792 22.3601 5.5444C22.0451 5.10337 21.7616 4.64658 21.4623 4.1898C21.2575 3.87478 21.1945 3.89053 20.974 4.1898C20.659 4.59933 20.4227 5.05611 20.092 5.46564C19.6194 6.06419 19.1941 6.70998 18.7531 7.34003C18.4381 7.79681 18.1231 8.25359 17.808 8.69463C17.3828 9.30892 16.9417 9.90746 16.5164 10.5218C15.8076 11.5298 15.0831 12.5379 14.39 13.546C14.2798 13.7035 14.1065 13.861 14.1065 14.0973C14.0908 14.113 14.075 14.1288 14.0593 14.1445C13.9648 14.1918 13.8703 14.2548 13.8073 14.3493C13.4765 14.8376 13.13 15.3259 12.7992 15.7984C12.4999 16.2394 12.2164 16.6805 11.8856 17.09C11.5863 17.468 11.3658 17.909 11.0666 18.2871C10.5468 18.9644 10.1215 19.7047 9.64895 20.4135C9.25517 21.012 8.90865 21.6578 8.53062 22.2879C8.1841 22.8706 7.91633 23.4849 7.5698 24.052C7.42804 24.2882 7.33354 24.5245 7.20753 24.7608C7.08152 24.997 6.95551 25.2176 6.84525 25.4381C6.67199 25.8004 6.53023 26.1626 6.37272 26.5092C6.02619 27.2652 5.75842 28.0685 5.49065 28.8561C5.34889 29.2656 5.25439 29.6751 5.14413 30.1004C4.97087 30.825 4.84486 31.5653 4.81335 32.3213C4.78185 33.0931 4.89211 33.8492 4.92361 34.6052C4.95511 35.1093 5.01812 35.5976 5.09687 36.0858C5.17563 36.6056 5.30164 37.1254 5.4119 37.6452C5.4434 37.8342 5.4434 38.039 5.63241 38.165C5.64816 38.228 5.61666 38.3068 5.67967 38.3698C5.66391 38.6375 5.82143 38.8738 5.85293 39.1258C5.86868 39.1888 5.90018 39.3148 6.02619 39.3306C6.02619 39.3463 6.02619 39.3463 6.02619 39.3621C5.96319 39.6929 6.1522 39.9606 6.26246 40.2441C6.49873 40.7954 6.76649 41.331 7.05001 41.8665L7.06577 41.8823C7.03426 42.024 7.19178 42.0555 7.23903 42.15C7.39654 42.5438 7.68006 42.8588 7.93208 43.1896C8.42036 43.8512 8.9559 44.4812 9.5702 45.0325C10.216 45.6153 10.8618 46.1981 11.6021 46.6549C12.3266 47.1116 13.0669 47.5684 13.8703 47.8992C14.138 48.0095 14.39 48.1355 14.6578 48.23C15.2091 48.4505 15.7919 48.608 16.3589 48.7655C17.0677 48.9545 17.7765 49.112 18.4853 49.2065C19.5092 49.3483 20.533 49.3168 21.5568 49.3798C22.2184 49.4113 22.8799 49.3798 23.5415 49.301C24.2503 49.2223 24.9433 49.1278 25.6364 48.9703C26.4397 48.797 27.2115 48.4977 27.9675 48.2142C28.1723 48.1355 28.4243 48.0725 28.5818 47.9307C28.8023 47.7417 29.0543 47.6629 29.2906 47.5369C29.8577 47.2061 30.3932 46.8439 30.913 46.4501C31.4328 46.0563 31.9368 45.6153 32.3936 45.1427C32.8346 44.686 33.2599 44.2292 33.6379 43.7251C34.3152 42.8588 34.9138 41.9453 35.4336 40.9844C35.8273 40.2441 36.1739 39.4881 36.4574 38.7005C36.6621 38.1335 36.8827 37.5822 37.0244 36.9994C37.1032 36.6844 37.2292 36.3851 37.2922 36.0701C37.4024 35.4873 37.4655 34.8888 37.5127 34.306C37.56 33.7074 37.4812 33.1089 37.4655 32.5103C37.4655 32.4473 37.4182 32.3056 37.2922 32.4001C36.9142 32.3843 36.5361 32.3843 36.1739 32.3686C34.331 32.3528 32.5038 32.3213 30.661 32.3056C29.7631 32.2898 28.8496 32.3056 27.9518 32.2898C25.7939 32.2583 23.6202 32.2426 21.4623 32.2111C21.2575 32.2111 21.1945 32.2741 21.1945 32.4788C21.1945 33.2506 21.1788 34.0067 21.163 34.7785C21.1473 36.7631 21.1473 38.732 21.1 40.7167C21.0685 41.7878 21.0843 42.8588 21.0528 43.9299C21.0213 44.7805 21.037 45.6153 21.0213 46.4658C20.9898 47.3794 21.0055 48.3087 21.0055 49.2223C20.8323 49.2065 20.659 49.1908 20.4857 49.175C20.4857 49.0805 20.47 49.0018 20.47 48.9073C20.5015 47.5212 20.5172 46.1508 20.5487 44.7647C20.5802 43.1896 20.5645 41.6145 20.596 40.0394C20.6432 37.5507 20.6275 35.0463 20.7062 32.5576C20.722 32.2111 20.7062 32.2111 20.344 32.1953C18.1703 32.1638 15.9967 32.1953 13.823 32.1166C12.5157 32.0693 11.2241 32.1008 9.91672 32.0693C8.2786 32.0221 6.64049 32.0693 5.00237 31.9906C4.93936 31.8173 5.01812 31.6598 5.04962 31.5023C5.34889 31.5023 5.64816 31.5023 5.94744 31.5023C8.12109 31.5338 10.3105 31.5338 12.4842 31.581C13.5552 31.6125 14.6263 31.5968 15.6974 31.5968C17.2725 31.6125 18.8476 31.6125 20.4227 31.644C20.6432 31.644 20.7062 31.581 20.7062 31.3605C20.7062 30.2107 20.6905 29.0608 20.722 27.911C20.7693 26.4934 20.722 25.0758 20.7693 23.6425C20.8165 22.4926 20.8008 21.3428 20.8165 20.193C20.8323 18.9644 20.8323 17.7358 20.8638 16.5072C20.9268 13.6562 20.8953 10.7895 20.974 7.93857C21.0055 6.899 21.0055 5.84367 21.0055 4.8041C20.974 4.69384 20.974 4.58358 20.9898 4.47332C20.9898 4.31581 21.0843 4.2213 21.1945 4.1268C21.3205 4.34731 21.5726 4.47332 21.5253 4.75684C21.5096 5.74916 21.5096 6.74149 21.4781 7.73381C21.4466 8.82063 21.4466 9.92321 21.4308 11.01C21.415 12.9317 21.4308 14.8533 21.3678 16.7907C21.3363 17.972 21.3678 19.1534 21.3205 20.3347C21.2733 21.5003 21.3205 22.6659 21.2733 23.8315C21.226 25.0286 21.2575 26.2256 21.2418 27.4227C21.2103 28.7301 21.226 30.0374 21.2103 31.3605C21.2103 31.6913 21.226 31.707 21.5568 31.707C23.0532 31.7385 24.5495 31.707 26.0459 31.7543C27.81 31.8015 29.5584 31.77 31.3225 31.8015C33.1969 31.8488 35.0555 31.833 36.9299 31.8645C37.1662 31.8645 37.2764 31.8015 37.2607 31.5653C37.3237 30.9825 37.1032 30.4469 36.9772 29.9114C36.7409 28.9033 36.3944 27.9425 36.0163 26.9817C35.7171 26.2099 35.3706 25.4538 35.0083 24.7135C34.7563 24.178 34.4727 23.6582 34.1735 23.1384C33.7482 22.4296 33.3544 21.6893 32.8819 21.012C32.6614 20.697 32.4093 20.4135 32.2046 20.0984C31.8896 19.5944 31.5273 19.1376 31.1965 18.6493C30.8185 18.0666 30.4089 17.4838 30.0152 16.901C29.7159 16.4914 29.4639 16.0504 29.1489 15.6409C28.9283 15.3574 28.7866 15.0266 28.5661 14.7431C28.2353 14.3178 27.9675 13.861 27.6525 13.42C27.621 13.4042 27.558 13.3097 27.4477 13.3097Z" fill="#0B81CB"/>
<path d="M36.9457 54.3572C37.0402 54.2627 37.1662 54.2469 37.2292 54.1209C37.4497 54.1524 37.56 53.9477 37.7175 53.8532C37.9853 53.6641 38.2373 53.4436 38.4735 53.2231C38.8831 52.8608 39.2926 52.4986 39.6864 52.1048C40.3637 51.4275 41.041 50.7344 41.5765 49.9311C41.6553 49.8209 41.7498 49.7106 41.8443 49.6003C41.9703 49.4586 41.986 49.3326 41.8285 49.1908C41.3403 48.7813 40.8677 48.3718 40.3794 47.9622C39.9069 47.5685 39.4659 47.1274 38.9618 46.7651C38.4263 46.3556 37.9538 45.8831 37.4182 45.4735C37.1189 45.253 36.8354 45.001 36.5519 44.749C36.4259 44.6387 36.4732 44.497 36.5677 44.371C36.6779 44.245 36.7409 44.2765 36.8512 44.3867C37.1347 44.6387 37.4182 44.875 37.7175 45.127C38.253 45.5996 38.7886 46.0721 39.3241 46.5446C39.8439 46.9857 40.3794 47.4109 40.8835 47.852C41.4978 48.3875 42.1121 48.9388 42.7264 49.4743C42.8366 49.5688 42.8051 49.6476 42.7421 49.7421C42.3011 50.3406 41.7813 50.8762 41.3088 51.4432C41.041 51.7582 40.7575 52.0418 40.4897 52.341C40.2062 52.6561 39.8596 52.9396 39.5604 53.2389C39.0091 53.7744 38.4105 54.2469 37.7962 54.7195C36.8354 55.4598 35.8274 56.1686 34.772 56.7514C33.9687 57.1924 33.1654 57.6019 32.3306 57.9799C31.5115 58.3422 30.6767 58.6415 29.8419 58.9408C29.1804 59.177 28.4873 59.2873 27.81 59.4763C27.1327 59.6496 26.4554 59.6811 25.7781 59.8228C25.4631 59.8858 25.1323 59.9016 24.8016 59.9331C23.9352 60.0118 23.0847 60.0118 22.2184 59.9803C21.6986 59.9646 21.1946 59.9961 20.6748 59.9803C19.9345 59.9488 19.2099 59.9331 18.4696 59.8701C18.0286 59.8386 17.5718 59.8071 17.1308 59.7283C16.674 59.6653 16.2014 59.6338 15.7447 59.5236C14.9099 59.3345 14.0435 59.2085 13.2245 58.9723C12.4842 58.7518 11.7439 58.5785 11.0193 58.2792C10.6885 58.1532 10.342 58.0272 10.0112 57.9012C9.66472 57.7752 9.3182 57.5547 8.97167 57.3972C7.9636 56.9246 7.00278 56.3418 6.08922 55.7275C5.27016 55.1762 4.52985 54.5462 3.8053 53.9004C3.128 53.3019 2.52946 52.6246 1.94667 51.963C1.37963 51.3172 0.907093 50.6242 0.387305 49.9469C0.261296 49.7736 0.166789 49.5688 0.0565314 49.3641C-0.0379754 49.2066 -0.0222243 49.0806 0.166789 48.9703C0.355803 48.86 0.529065 48.6868 0.702328 48.545C1.22212 48.104 1.7419 47.663 2.26169 47.2219C2.95474 46.6391 3.63204 46.0406 4.32509 45.442C4.68736 45.127 5.06539 44.8278 5.44342 44.5285C5.52217 44.4655 5.55368 44.308 5.69544 44.3867C5.82145 44.4655 5.9002 44.6072 5.97896 44.7332C6.04196 44.8278 5.9317 44.875 5.88445 44.9223C5.52217 45.2215 5.14415 45.5208 4.76612 45.8201C4.13608 46.3399 3.50603 46.8596 2.86023 47.3637C2.29319 47.8205 1.72615 48.2615 1.15911 48.7025C1.12761 48.734 1.08036 48.7655 1.04885 48.797C0.702328 49.1121 0.686577 49.1278 0.954346 49.4901C1.39538 50.0729 1.83641 50.6714 2.34045 51.207C2.86023 51.7582 3.38002 52.3095 3.94706 52.8136C4.4511 53.2861 4.98664 53.7271 5.53793 54.1524C6.07346 54.5777 6.64051 54.9715 7.2233 55.3495C7.72733 55.6803 8.26287 55.9638 8.79841 56.2631C9.60172 56.6884 10.4365 57.0506 11.2556 57.4129C11.7754 57.6334 12.3267 57.8067 12.8622 57.9799C13.5238 58.1847 14.1853 58.3895 14.8626 58.5312C15.6817 58.7045 16.5007 58.8463 17.3198 58.9723C18.5011 59.1455 19.6982 59.2085 20.8795 59.2085C21.4151 59.2085 21.9506 59.2715 22.5019 59.2243C23.1477 59.177 23.8092 59.2085 24.455 59.1455C24.9118 59.0983 25.3686 59.0668 25.8254 58.9723C26.3924 58.862 26.9752 58.799 27.5265 58.673C28.1093 58.5312 28.6763 58.3895 29.2591 58.232C29.7159 58.106 30.1412 57.9169 30.6137 57.8067C30.8815 57.7437 31.1335 57.6177 31.4013 57.5074C32.5669 57.0506 33.6852 56.4836 34.772 55.8535C35.4493 55.4598 36.1266 55.0345 36.7567 54.5462C36.8354 54.4989 36.9299 54.4674 36.9457 54.3572Z" fill="#0B81CB"/>
<path d="M12.0116 57.4129C11.7123 56.8931 11.3501 56.4521 10.846 56.1213C10.5783 55.948 10.6728 55.6645 10.657 55.3653C10.8933 55.5385 11.0823 55.696 11.3186 55.7748C11.5863 55.8693 11.8226 55.8063 12.0274 55.6173C12.1219 55.5228 12.1061 55.4283 12.0274 55.3495C11.9486 55.2707 11.8699 55.2707 11.7911 55.3495C11.6651 55.4755 11.5391 55.6015 11.3186 55.57C11.1611 55.5543 11.0665 55.4598 11.0193 55.3337C10.972 55.2077 11.0665 55.1132 11.1611 55.0345C11.2241 54.9715 11.3186 54.94 11.4131 54.9085C11.7123 54.8455 11.7123 54.8455 11.6021 54.5304C11.4288 54.5619 11.3343 54.751 11.1453 54.751C11.035 54.751 10.9405 54.751 10.8775 54.6565C10.7988 54.5462 10.72 54.4202 10.783 54.2784C10.8145 54.1839 10.8933 54.1209 10.972 54.2469C11.1138 54.4517 11.2398 54.3099 11.3501 54.2312C11.4288 54.1682 11.4288 54.0737 11.3186 54.0264C11.0665 53.9161 10.8145 53.7901 10.5468 53.6956C10.3892 53.6326 10.342 53.8059 10.2947 53.9004C10.0585 54.3729 9.83796 54.8455 9.60169 55.318C9.52294 55.4598 9.45993 55.6173 9.38117 55.7748C9.22366 55.5858 9.23941 55.4125 9.34967 55.2077C9.55444 54.8297 9.7277 54.4517 9.90096 54.0737C10.0585 53.7429 10.027 53.5066 9.82221 53.3649C9.68045 53.2703 9.60169 53.2861 9.49143 53.4436C9.17641 53.8846 8.95589 54.3729 8.70388 54.8612C8.67237 54.94 8.64087 55.0345 8.53061 55.066C8.43611 55.0187 8.38885 54.9557 8.38885 54.8297C8.4046 54.5777 8.3101 54.3887 8.12108 54.2469C7.94782 54.1052 8.07383 53.9476 8.07383 53.8059C8.07383 53.6641 8.19984 53.7114 8.29435 53.6799C8.4046 53.6484 8.53061 53.6641 8.64087 53.5696C8.57787 53.3964 8.53061 53.2388 8.46761 53.0656C8.19984 53.1128 7.90057 53.4121 7.72731 52.9868C7.6643 52.8451 7.61705 52.6876 7.82181 52.5931C8.05808 52.8451 8.18409 52.8451 8.38885 52.5773C8.15259 52.3725 7.85331 52.2308 7.6013 52.0733C7.50679 52.0103 7.44379 52.1205 7.39653 52.1835C7.09726 52.5615 6.79799 52.9553 6.49872 53.3491C6.37271 53.5224 6.2467 53.6799 6.08919 53.8689C6.02618 53.7429 6.07344 53.6484 6.12069 53.5539C6.2782 53.3019 6.37271 53.0183 6.43571 52.7348C6.48297 52.53 6.46722 52.341 6.32546 52.1678C6.2782 52.152 6.2467 52.1835 6.23095 52.215C6.13644 52.3883 6.01043 52.4985 5.80567 52.4198C5.61665 52.3568 5.5064 52.2465 5.49064 52.0418C5.47489 51.8212 5.58515 51.6795 5.77417 51.585C6.12069 51.4117 6.49872 51.5692 6.64048 51.963C6.68773 52.1048 6.71923 52.2623 6.75074 52.467C6.97125 52.278 7.09726 52.0733 7.23902 51.8685C7.30203 51.7897 7.22327 51.711 7.16027 51.6637C6.82949 51.4432 6.56172 51.1754 6.2152 50.9864C5.94743 50.8289 5.75841 50.5454 5.5379 50.3249C5.42764 50.2146 5.34888 50.0886 5.17562 50.0729C5.08112 50.1516 5.11262 50.2304 5.15987 50.3091C5.23863 50.4824 5.38039 50.6084 5.55365 50.6872C5.67966 50.7502 5.69541 50.8289 5.69541 50.9549C5.71116 51.2227 5.61665 51.333 5.33313 51.3645C4.9236 51.4117 4.65583 51.6952 4.43532 52.026C4.38807 52.1048 4.34081 52.1993 4.27781 52.3095C4.10454 52.215 4.10454 52.089 4.1833 51.963C4.41957 51.6007 4.64008 51.2227 5.04961 51.0337C5.19137 50.9707 5.17562 50.8762 5.09687 50.7974C4.9236 50.5927 4.81335 50.3564 4.8606 50.0729C4.87635 49.9626 4.81335 49.9311 4.71884 49.9311C4.64008 49.9311 4.57708 49.9469 4.51407 49.9626C4.41957 49.9941 4.29356 50.0256 4.29356 50.1516C4.29356 50.2619 4.40382 50.3091 4.48257 50.3406C4.60858 50.4036 4.73459 50.4351 4.8606 50.4981C4.81335 50.6872 4.76609 50.8604 4.70309 51.0337C4.62433 51.2542 4.38807 51.3802 4.1203 51.3645C3.83678 51.3487 3.58476 51.1912 3.506 50.9234C3.33274 50.4036 3.5375 49.9784 3.85253 49.5846C3.94703 49.4586 4.08879 49.3641 4.2148 49.2381C4.30931 49.3483 4.26206 49.4271 4.1833 49.5058C4.02579 49.6948 3.88403 49.8996 3.80527 50.1359C3.69502 50.4982 3.82102 50.8132 4.1518 50.9864C4.26206 51.0494 4.40382 51.0967 4.46682 50.9707C4.56133 50.8289 4.41957 50.7659 4.30931 50.7187C4.10455 50.6242 4.04154 50.4509 4.04154 50.2461C4.04154 50.0099 4.1203 49.8051 4.35656 49.7106C4.48257 49.6633 4.60858 49.6161 4.73459 49.5531C4.62433 49.2538 4.1518 49.1593 4.29356 48.671C5.23863 49.5531 6.04193 50.5297 7.06576 51.2857C8.08958 52.0418 9.20791 52.6088 10.2632 53.3176C10.405 53.2388 10.3735 53.0026 10.5468 52.9081C10.5625 52.9711 10.594 53.0341 10.5783 53.0813C10.4838 53.3649 10.6728 53.4594 10.8618 53.5381C11.7281 53.8846 12.5787 54.2469 13.4765 54.4989C13.7442 54.5777 14.075 54.6092 14.138 55.003C13.9018 54.9242 13.6655 54.9085 13.5552 55.192C13.4922 55.318 13.4765 55.4598 13.445 55.6015C13.4135 55.822 13.382 56.0583 13.3505 56.2946C13.2717 56.7671 12.7677 56.9876 12.4526 56.9404C12.3896 56.9246 12.3266 56.9089 12.3266 56.8301C12.3266 56.7671 12.3739 56.7356 12.4369 56.7198C12.8464 56.6096 12.9724 56.4363 12.9882 56.011C12.9882 55.885 13.0039 55.7748 13.0197 55.6488C13.0512 55.4125 13.1299 55.2077 13.3032 55.0345C13.3505 54.9872 13.445 54.94 13.4135 54.8455C13.382 54.751 13.2875 54.7667 13.2245 54.7352C12.9094 54.6249 12.6732 54.5934 12.5157 54.9872C12.4526 55.1605 12.3109 55.255 12.3581 55.4913C12.4369 55.8378 12.2164 56.0898 11.8541 56.1843C11.5863 56.2473 11.6021 56.2788 11.7438 56.5151C11.9486 56.8301 12.2321 57.1294 12.2006 57.5547C12.1849 57.5547 12.1691 57.5547 12.1534 57.5547C12.0904 57.4602 12.0904 57.4129 12.0116 57.4129ZM11.9014 54.2627C11.8226 54.5462 11.9644 54.7667 12.2321 54.7352C12.3109 54.7195 12.3739 54.7037 12.3896 54.6092C12.4054 54.5304 12.4054 54.4517 12.3109 54.4044C12.1849 54.3414 12.0589 54.2784 11.9014 54.2627ZM8.81413 52.8293C8.71963 53.0498 8.79838 53.2073 8.9874 53.3176C9.09765 53.3964 9.19216 53.3334 9.25517 53.2546C9.31817 53.1758 9.31817 53.0656 9.23941 53.0183C9.11341 52.9553 9.00315 52.8293 8.81413 52.8293ZM8.73538 53.9791C8.62512 53.9476 8.51486 53.9319 8.46761 54.0264C8.4046 54.1367 8.51486 54.2312 8.56212 54.3257C8.70388 54.2469 8.76688 54.1524 8.73538 53.9791Z" fill="black"/>
<path d="M12.1062 57.5231C12.0747 57.5389 12.0589 57.5546 12.0274 57.5704C12.0274 57.5546 12.0274 57.5546 12.0117 57.5389C12.0432 57.5389 12.0747 57.5389 12.1062 57.5231Z" fill="black"/>
<path d="M17.7765 30.1319C16.3747 30.1634 15.0043 30.0846 13.5867 30.0689C13.6812 29.9271 13.7757 29.9586 13.8545 29.9586C14.2168 29.9586 14.5948 29.9586 14.9571 29.9586C15.1618 29.9586 15.2248 29.8799 15.2248 29.6909C15.2248 27.5487 15.2406 25.3908 15.2406 23.2487C15.2406 22.8864 15.2406 22.5084 15.2406 22.1461C15.2406 22.0201 15.2248 21.9256 15.0831 21.9098C14.9886 21.8941 14.9728 21.8311 14.9728 21.7523C14.9886 21.6735 14.9413 21.5475 15.0516 21.5318C15.2406 21.4845 15.2248 21.3428 15.2406 21.201C15.2406 21.0277 15.2091 20.8545 15.2721 20.6497C15.5399 20.7442 15.7919 20.8387 16.0754 20.8702C16.1227 21.0277 16.0912 21.1853 16.1069 21.3428C16.1069 21.4058 16.0912 21.5003 16.2014 21.516C16.3274 21.516 16.2959 21.4058 16.3117 21.3428C16.3117 21.201 16.3117 21.0592 16.3117 20.9017C16.6267 20.8545 16.9417 20.7915 17.2252 20.6655C17.3197 20.76 17.2882 20.8702 17.2882 20.9805C17.2882 23.8472 17.2882 26.7139 17.2725 29.5806C17.2725 29.9586 17.2725 29.9586 17.6663 30.0216C17.6978 30.0059 17.7293 30.0216 17.7765 30.1319ZM16.1227 29.9586C16.3274 29.9744 16.2802 29.8169 16.2802 29.7224C16.2802 28.541 16.2802 27.3755 16.2802 26.1941C16.2802 24.871 16.2802 23.5637 16.2802 22.2406C16.2802 22.1461 16.3274 22.0043 16.1227 21.9571C16.1227 24.6348 16.1227 27.2967 16.1227 29.9586Z" fill="black"/>
<path d="M16.296 17.027C17.0363 17.027 17.7608 17.0427 18.5011 17.027C18.7374 17.027 18.8319 17.1372 18.8791 17.3262C19.0051 17.846 18.9421 18.3343 18.7846 18.8384C18.5169 19.5787 18.0286 20.13 17.304 20.4135C16.863 20.5867 16.4062 20.6182 15.9337 20.5552C15.2249 20.4607 14.5791 20.1772 14.1538 19.5787C13.6498 18.8856 13.4765 18.1138 13.697 17.279C13.7443 17.09 13.8703 17.027 14.0593 17.027C14.7996 17.0427 15.5399 17.027 16.296 17.027Z" fill="black"/>
<path d="M26.3609 24.43C26.3767 24.7293 26.3609 25.0286 26.3137 25.3278C26.2822 25.2176 26.2664 25.1231 26.2349 25.0128C26.1562 24.6505 26.0459 24.5718 25.6836 24.6505C25.5261 24.682 25.4946 24.8238 25.4789 24.9656C25.4631 25.1546 25.5261 25.3436 25.3844 25.5641C25.3213 25.3278 25.3529 25.1388 25.3529 24.9498C25.3529 24.745 25.3056 24.619 25.0693 24.619C24.8961 24.619 24.8646 24.5088 24.9591 24.3828C25.0378 24.2725 25.0536 24.1623 25.0536 24.052C24.9906 23.4377 25.3529 23.0754 25.8569 22.8077C25.9356 23.0282 26.1247 22.9809 26.2822 22.9652C26.802 22.9022 26.8807 23.0597 26.802 22.4139C26.7705 22.1776 26.7862 21.9413 26.7705 21.6893C26.7547 21.5161 26.8335 21.4688 26.991 21.4688C27.18 21.4846 27.369 21.4688 27.558 21.4688C27.7155 21.4688 27.7943 21.4058 27.7943 21.2483C27.7943 21.0278 27.8415 20.8073 27.5423 20.6813C27.3532 20.6025 27.306 20.382 27.2272 20.193C27.1957 20.1142 27.2272 20.067 27.2902 20.004C27.5265 19.8149 27.7313 19.6102 27.9675 19.4527C28.5346 19.0746 29.1646 19.3424 29.4009 19.8622C29.4481 19.9567 29.4481 20.0512 29.3536 20.13C29.2276 20.2402 29.1804 20.4607 29.0386 20.4922C28.8496 20.5237 28.8654 20.256 28.7393 20.1615C28.6291 20.0827 28.5346 19.9567 28.3928 19.9252C28.3141 20.004 28.3298 20.0985 28.3298 20.1772C28.3298 20.319 28.3141 20.4607 28.2038 20.571C28.1093 20.6498 28.1093 21.3428 28.1723 21.4531C28.2038 21.5003 28.2353 21.5003 28.2826 21.5161C28.5346 21.5476 28.7236 21.4216 28.8339 21.201C29.0229 20.8388 29.2119 20.4765 29.5427 20.193C29.7002 20.0512 29.8734 20.0197 30.0782 20.1142C30.2357 20.193 30.2357 20.3505 30.2042 20.4922C30.1727 20.6813 30.0467 20.7758 29.8419 20.823C29.3379 20.9333 29.1174 21.2168 29.0701 21.7523C29.0544 21.8783 29.0701 22.0043 28.8811 22.0201C28.7393 22.0359 28.7708 22.1934 28.7708 22.3036C28.7708 23.0597 28.7708 23.8 28.7708 24.556C28.7708 24.6978 28.8024 24.8711 28.5976 24.9341C28.5346 24.9498 28.5346 25.0443 28.5346 25.1073C28.5188 25.7216 28.5188 26.3202 28.5031 26.9345C28.4873 27.1235 28.6763 27.1235 28.7866 27.2967C28.1723 27.2967 27.621 27.2967 27.054 27.2967C27.054 27.1392 26.9595 27.1077 26.802 27.1077C26.1719 27.092 25.5576 27.0762 24.9276 27.0447C24.7386 27.0447 24.6125 27.092 24.518 27.2652C24.1085 27.9898 23.6832 28.6986 23.2895 29.4074C23.1634 29.6279 23.0374 29.7539 22.7697 29.7067C22.6437 29.6909 22.5019 29.7382 22.3759 29.6909C22.2814 29.2814 22.4231 28.9506 22.6437 28.6198C23.0689 27.974 23.4627 27.3125 23.8722 26.6667C23.9825 26.4777 24.1243 26.3832 24.3763 26.3989C25.1638 26.4304 25.9514 26.4147 26.7547 26.4147C26.9437 26.4147 27.0382 26.4462 27.0225 26.6667C27.0067 26.7454 27.0382 26.8399 27.0225 26.9345C27.0225 27.0447 27.0382 27.1392 27.1642 27.1392C27.306 27.1392 27.2902 27.029 27.2902 26.9187C27.243 26.4147 27.18 25.9264 27.1327 25.4223C27.117 25.3278 27.117 25.2333 27.1012 25.1388C27.0855 25.0758 27.0855 24.9813 27.0067 24.9498C26.9122 24.9183 26.7862 24.9183 26.8177 24.7765C26.865 24.556 26.7075 24.304 26.9122 24.0992C27.18 23.8472 27.1012 23.5165 27.0855 23.2014C27.0855 23.1384 27.0067 23.0912 26.9437 23.1069C26.8807 23.1227 26.865 23.1699 26.865 23.2329C26.8807 23.3117 26.8807 23.3747 26.8807 23.4535C26.865 23.8945 26.8492 23.9102 26.4082 23.926C26.2507 23.926 26.0774 23.9575 26.0459 24.1623C26.0302 24.304 26.0774 24.367 26.3609 24.43ZM27.9675 20.0985C27.936 20.0985 27.9045 20.1142 27.9045 20.1457C27.9045 20.1772 27.936 20.193 27.9518 20.2087C27.9833 20.2245 28.0148 20.2087 28.0148 20.1772C28.0463 20.1142 27.999 20.1142 27.9675 20.0985Z" fill="black"/>
<path d="M32.2519 29.2656C31.9841 28.8089 31.7793 28.3836 31.5273 27.9898C31.3383 27.7063 31.1808 27.407 31.0075 27.1077C30.8815 26.8872 30.724 26.7927 30.472 26.7927C29.9994 26.8085 29.5112 26.7927 29.0386 26.7927C28.8969 26.7927 28.8024 26.777 28.8181 26.6037C28.8339 26.4619 28.8496 26.3674 29.0386 26.3674C29.6372 26.3674 30.22 26.3674 30.8185 26.3674C30.9445 26.3674 31.0233 26.4147 31.102 26.5249C31.4958 27.0447 31.8896 27.5488 32.2991 28.0528C32.5039 28.3048 32.7086 28.5726 32.9292 28.8089C33.1812 29.0766 33.2599 29.3916 33.2442 29.7539C33.2442 30.1477 33.2442 30.1635 32.8347 30.1635C30.4405 30.1635 28.0463 30.1477 25.6364 30.195C25.1323 30.2107 24.6126 30.195 24.0928 30.195C24.0613 29.9744 24.077 29.7539 24.0928 29.5019C26.802 29.3759 29.4954 29.4074 32.2519 29.2656Z" fill="black"/>
<path d="M31.9841 24.493C31.9841 24.7293 31.9998 24.8868 31.9526 25.06C31.8423 25.4066 31.5588 25.5326 31.2438 25.3751C31.0547 25.2963 31.039 25.1703 31.1492 25.0128C31.417 24.5875 31.4013 24.2725 31.0862 23.8787C30.9445 23.7054 30.8657 23.5164 30.7712 23.3274C30.5507 22.9021 30.1569 22.6186 29.9364 22.2091C29.7789 21.9256 29.7159 21.5948 29.6371 21.2955C29.5899 21.0907 29.7946 20.9962 29.9207 20.886C30.0152 20.8072 30.1727 20.8387 30.2829 20.886C30.3459 20.9017 30.3459 20.9805 30.3459 21.0277C30.3144 21.4688 30.5349 21.8468 30.7082 22.2248C30.9287 22.6974 31.2122 23.1226 31.6533 23.4219C31.6848 23.4377 31.732 23.4692 31.732 23.5164C31.7635 23.8472 32.0943 24.1465 31.9841 24.493Z" fill="black"/>
<path d="M26.5814 27.9898C26.7862 27.8795 27.0067 27.848 27.2272 27.785C27.369 27.7377 27.5107 27.722 27.558 27.5487C27.5738 27.47 27.6683 27.4857 27.7155 27.4857C27.873 27.4857 28.0305 27.4857 28.188 27.5015C28.2195 27.5015 28.2983 27.5015 28.2983 27.5172C28.4086 27.8322 28.7236 27.7535 28.9441 27.8795C29.0386 27.9268 29.0859 27.9898 29.0859 28.1C29.1331 28.6513 29.0386 28.7931 28.4401 28.9506C27.9675 29.0766 27.4792 29.0766 27.0382 28.8876C26.5972 28.7143 26.5184 28.6198 26.5814 27.9898ZM27.5265 28.3363C27.5265 28.1945 27.5265 28.0843 27.5265 27.9898C27.5265 27.8953 27.4635 27.8322 27.3847 27.8795C27.2745 27.9268 27.1642 27.9583 27.0697 28.037C26.865 28.2418 26.8965 28.352 27.18 28.4465C27.6998 28.6198 28.188 28.5253 28.6606 28.3363C28.8023 28.2733 28.8181 28.163 28.7078 28.0843C28.6291 28.0213 28.5346 27.911 28.3613 27.974C28.3613 28.037 28.3613 28.1158 28.3613 28.1945C28.3613 28.2733 28.3298 28.3363 28.2353 28.3363C28.0148 28.3363 27.7943 28.3363 27.5265 28.3363Z" fill="black"/>
<path d="M32.1889 27.3597C32.4566 27.3597 32.7401 27.3597 33.0079 27.3597C33.0394 27.3597 33.0867 27.3912 33.1182 27.407C33.3859 27.6905 33.6537 27.974 33.9057 28.2576C34.0002 28.3678 33.953 28.5253 33.9372 28.6986C33.638 28.6986 33.3544 28.6986 33.0709 28.6986C33.0394 28.6986 32.9922 28.6986 32.9607 28.6671C32.6929 28.2576 32.4251 27.8323 32.1573 27.4227C32.1573 27.407 32.1731 27.3912 32.1889 27.3597Z" fill="black"/>
<path d="M25.8254 24.8553C26.0144 25.1703 26.0932 25.4696 26.1562 25.7689C26.0459 25.8161 25.9514 25.8319 25.8411 25.7846C25.7939 25.5011 25.8096 25.2018 25.8254 24.8553Z" fill="black"/>
<path d="M10.342 39.9134C10.5468 39.7401 10.6728 39.7559 10.846 39.9134C11.0036 40.0709 11.2556 40.1182 11.4918 40.1024C10.5783 39.6771 10.0112 38.8108 9.16067 38.3383C9.52295 37.7555 9.97973 37.6925 10.4995 38.1493C10.6885 38.3225 10.8618 38.3225 11.0508 38.228C11.2871 38.1178 11.5233 38.0548 11.7911 38.0705C11.9171 38.0863 12.0116 38.0233 12.1219 37.9602C12.4212 37.7712 12.6574 37.8027 12.8937 38.0705C13.0197 38.228 13.1457 38.4013 13.2717 38.5588C13.3347 38.6375 13.3662 38.7321 13.382 38.8266C13.4292 39.1573 13.3505 39.2203 13.0354 39.1258C12.5157 38.9683 12.0116 38.9368 11.4918 39.1731C11.1296 39.3306 10.657 39.1573 10.4365 38.8108C10.405 38.7478 10.3578 38.6848 10.2948 38.669C10.2317 38.8896 10.4523 39.1888 10.7358 39.3306C11.0351 39.4724 11.3343 39.3778 11.6021 39.2991C12.0116 39.1888 12.4054 39.2046 12.7992 39.3148H12.8149C13.3032 39.4409 13.4765 39.3936 13.571 39.1258C13.7127 38.7163 13.5552 38.2123 13.1772 38.0548C12.7677 37.8815 12.5629 37.6137 12.5157 37.1727C12.4842 36.9049 12.6574 36.7947 12.8149 36.6687C12.9252 36.5899 13.0985 36.5899 13.2402 36.6844C13.2717 36.7159 13.319 36.7159 13.3347 36.7002C13.3347 36.0071 13.3347 35.3141 13.3347 34.621C13.3347 34.4005 13.3347 34.1957 13.319 33.9752C13.319 33.865 13.319 33.7862 13.4607 33.7704C13.5237 33.8177 13.508 33.8807 13.508 33.9437C13.508 34.7943 13.508 35.6606 13.508 36.5111C13.508 36.6529 13.445 36.7159 13.3347 36.7789C13.5237 36.9994 13.7127 37.1884 13.9333 37.3302C14.5633 37.724 15.0831 38.2595 15.6344 38.7321C15.6974 38.7951 15.7761 38.8738 15.8549 38.7951C15.9494 38.7006 15.8392 38.6218 15.7604 38.5588C15.4296 38.2753 15.0831 37.9917 14.6893 37.6452C15.5084 37.6137 16.2802 37.6295 17.0205 37.3775C17.745 37.1097 18.4696 36.8892 19.2414 36.6214C19.4462 37.5665 19.6509 38.4958 19.8557 39.4409C18.9106 39.5354 18.0128 39.7716 17.0835 39.6614C16.863 39.6299 16.674 39.5039 16.4692 39.4094C16.4062 39.3778 16.3432 39.3148 16.2329 39.3306C16.3589 39.5984 16.5795 39.7401 16.8315 39.8189C17.1622 39.9291 17.493 39.9764 17.8395 40.0236C18.5326 40.0867 19.2414 40.1654 19.9344 40.2442C20.092 40.2599 20.1865 40.2914 20.1392 40.4962C19.9659 41.3782 19.7139 42.2603 19.4934 43.1581C19.2414 43.1266 19.0209 43.0164 18.7846 42.9376C18.4696 42.8431 18.1388 42.7171 17.8238 42.6541C17.0047 42.4808 16.1699 42.3706 15.3351 42.3391C15.2879 42.3391 15.2564 42.3391 15.2091 42.3233C14.7838 42.1816 14.3743 42.2603 13.9963 42.4808C13.7127 42.6541 13.4135 42.6856 13.0985 42.6698C12.6889 42.6383 12.2636 42.6383 11.8541 42.6383C11.5863 42.6383 11.3343 42.7328 11.0981 42.8431C11.0193 42.8746 10.9721 42.9534 10.8933 42.8746C10.8145 42.7958 10.909 42.7328 10.9563 42.6698C11.0981 42.4808 11.2556 42.2761 11.3973 42.087C11.3028 41.9453 11.1768 42.0083 11.0666 42.0083C10.783 42.024 10.5153 42.0398 10.2317 41.9453C10.1057 41.898 9.97973 41.8665 9.90097 41.7563C9.77496 41.5673 9.66471 41.5988 9.50719 41.709C9.28668 41.8508 9.03466 41.898 8.78264 41.772C8.64088 41.709 8.62513 41.6145 8.71964 41.52C8.98741 41.2365 9.27093 40.9687 9.50719 40.6537C9.55445 40.5907 9.61745 40.5592 9.71196 40.6064C9.88522 40.7009 10.0585 40.8112 10.216 40.9215C10.2002 41.1262 9.99548 41.2365 9.97973 41.4412C10.09 41.52 10.1845 41.457 10.2632 41.394C10.531 41.1892 10.8145 41.1105 11.1611 41.1577C11.4131 41.1892 11.6651 41.1735 11.9329 41.1735C12.0274 41.1735 12.1376 41.1577 12.1691 41.0002C11.8384 40.9215 11.5076 40.953 11.1926 40.9687C10.9405 40.9845 10.7358 40.9687 10.5783 40.7482C10.4523 40.5749 10.216 40.6222 10.0742 40.4962C9.79072 40.1969 9.55445 40.2914 9.30243 40.5434C9.19217 40.6537 9.03466 40.7167 8.8929 40.7955C8.62513 40.9372 8.38886 40.8742 8.1841 40.6537C8.08959 40.5434 8.10534 40.4489 8.19985 40.3702C8.64088 39.9921 9.06616 39.5669 9.5387 39.2203C9.80647 39.0156 9.85372 39.0156 10.027 39.3148C10.1687 39.4724 10.342 39.6141 10.342 39.9134ZM9.86947 38.4013C9.68046 38.165 9.64896 38.165 9.52295 38.2753C9.6332 38.3225 9.69621 38.4328 9.86947 38.4013ZM13.0512 37.4562C13.0197 37.4247 13.0197 37.346 12.9409 37.3775C12.8779 37.3932 12.8307 37.4247 12.8464 37.4877C12.8622 37.5507 12.9252 37.5665 12.9724 37.5665C13.0354 37.5665 13.067 37.535 13.0512 37.4562ZM11.6809 42.024C11.6178 41.9453 11.5706 41.9453 11.5233 42.024C11.5548 42.087 11.6021 42.1028 11.6809 42.024ZM10.027 41.5358C10.027 41.52 10.0112 41.52 10.0112 41.5043L9.99548 41.52C9.99548 41.5358 10.0112 41.5358 10.0112 41.5515L10.027 41.5358Z" fill="black"/>
<path d="M12.4054 33.8334C12.5787 33.7547 12.7204 33.8177 12.8779 33.8019C12.8149 34.2745 12.7362 34.7155 12.6889 35.1723C12.6259 35.7708 12.4527 36.3694 12.4999 36.9994C12.5157 37.2357 12.3109 37.6452 12.0904 37.7555C12.2007 36.4324 12.2952 35.125 12.4054 33.8334Z" fill="black"/>
<path d="M11.7911 33.8334C11.7124 34.369 11.6336 34.9045 11.5391 35.4401C11.4603 35.8811 11.3501 36.3221 11.3028 36.7789C11.2713 37.0939 11.1296 37.3932 11.1296 37.7082C11.1296 37.8027 11.0508 37.8342 10.9248 37.787C10.9721 37.4405 11.0193 37.0939 11.0666 36.7474C11.2241 35.8338 11.3816 34.936 11.5233 34.0225C11.5706 33.8649 11.6021 33.7547 11.7911 33.8334Z" fill="black"/>
<path d="M11.0036 42.2445C10.7043 42.5596 10.4838 42.9533 10.0113 43.0478C9.88525 43.0636 9.79075 43.0636 9.71199 42.9848C9.63324 42.8903 9.75924 42.8116 9.75924 42.7171C9.75924 42.7013 9.79075 42.6856 9.8065 42.6698C10.027 42.0555 10.531 42.1973 11.0036 42.2445Z" fill="black"/>
<path d="M14.7366 36.9837C14.7523 37.0467 14.7366 37.1097 14.6736 37.1254C14.5791 37.1569 14.5633 37.0782 14.5633 37.0152C14.5161 36.7474 14.4688 36.4796 14.4373 36.2119C14.3586 35.4716 14.2641 34.747 14.1381 34.0067C14.1223 33.9437 14.0908 33.8492 14.2011 33.8334C14.3113 33.8177 14.2956 33.9279 14.3113 33.9909C14.3901 34.5422 14.4688 35.0778 14.5476 35.6291C14.5948 36.0701 14.6578 36.5269 14.7366 36.9837Z" fill="black"/>
<path d="M11.9329 42.8431C11.9959 42.8589 12.1534 42.7644 12.1691 42.9376C12.1849 43.0951 12.0746 43.1739 11.9329 43.2054C11.7438 43.2684 11.5548 43.2211 11.3658 43.1896C11.3028 43.1739 11.2398 43.1581 11.2241 43.0794C11.2241 43.0006 11.2871 42.9691 11.3343 42.9376C11.5233 42.8904 11.6966 42.8116 11.9329 42.8431Z" fill="black"/>
<path d="M9.52296 39.0471C9.36545 39.1573 9.17644 39.2203 9.06618 39.3936C9.00318 39.4881 8.92442 39.5039 8.86141 39.3621C8.81416 39.2518 8.6724 39.1573 8.71965 39.0313C8.78266 38.8896 8.97167 38.9211 9.11343 38.9211C9.25519 38.9211 9.4127 38.9053 9.52296 39.0471Z" fill="black"/>
<path d="M23.3367 36.3536C23.4155 36.1173 23.4785 35.8653 23.6675 35.692C24.0613 35.2983 24.4866 34.9675 24.9906 34.747C25.1324 34.684 25.2899 34.684 25.4316 34.6682C25.8884 34.6525 26.3294 34.6052 26.7705 34.4792C27.0698 34.4004 27.4163 34.4162 27.747 34.4162C28.2826 34.4162 28.8339 34.3217 29.3694 34.3847C29.6214 34.4162 29.8577 34.4319 30.0467 34.6367C29.9995 34.7942 29.7947 34.6682 29.7317 34.8257C29.8262 34.9045 29.9207 34.8887 30.0152 34.8572C30.094 34.7942 29.9522 34.7312 30.031 34.684C30.3617 34.7627 30.3617 34.8415 30.0152 35.314C30.157 35.377 30.157 35.377 30.85 35.125C30.8185 35.7708 30.8815 36.4166 30.787 37.0939C31.039 36.9049 31.0705 36.6686 31.0705 36.4166C31.0863 36.0071 31.102 35.5975 31.1178 35.188C31.1178 35.0935 31.102 34.9675 31.2753 34.9675C31.4328 34.9832 31.4171 35.0935 31.4171 35.188C31.4171 36.4323 31.4171 37.6609 31.4171 38.9053C31.4171 40.0866 31.4171 41.2679 31.4171 42.4493C31.4171 42.7013 31.3698 42.7328 31.1335 42.654C31.0705 42.6225 30.9918 42.6225 30.9288 42.6225C30.8658 42.6383 30.8028 42.6225 30.7398 42.6225C30.6453 42.3075 30.5823 42.276 30.2357 42.3863C30.346 42.591 30.5508 42.717 30.5823 42.9533C30.6138 43.1738 30.6768 43.4101 30.6768 43.6621C30.4405 43.6621 30.2042 43.6779 29.9837 43.6621C29.8104 43.6464 29.7002 43.7094 29.7002 43.8984C29.7002 44.0874 29.6214 44.1662 29.4324 44.1819C29.0701 44.2292 28.7236 44.2922 28.3771 44.3552C28.2196 44.3867 28.0778 44.3394 27.9518 44.2292C27.6683 43.9614 27.3375 43.8984 26.9595 44.0086C26.5972 44.1031 26.2192 44.0559 25.8412 44.1662C25.7467 44.1977 25.6521 44.1346 25.5734 44.0874C25.0379 43.6306 24.4708 43.2211 23.9038 42.7958C23.7305 42.6698 23.7305 42.5438 23.8408 42.3863C24.0298 42.1185 24.0928 41.772 24.3763 41.5672C24.4078 41.5515 24.3921 41.4727 24.4078 41.4255C24.4708 39.8818 24.4708 38.3382 24.5023 36.8104C24.5023 36.5899 24.3921 36.5111 24.1558 36.6056C23.9668 36.6686 23.7935 36.7946 23.699 36.4796C23.636 36.3536 23.447 36.4481 23.3367 36.3536ZM26.928 36.1803C27.5265 36.2748 27.5895 36.3693 27.4793 36.8891C27.2273 36.8891 26.9752 36.8891 26.7232 36.8891C26.6287 36.8891 26.4712 36.8261 26.487 36.9836C26.487 37.1411 26.6445 37.0781 26.739 37.0781C26.9437 37.0939 27.1485 37.0939 27.3533 37.1096C27.432 37.1096 27.5265 37.1096 27.5265 37.2199C27.5108 37.4404 27.558 37.6609 27.495 37.8972C27.2115 37.8814 26.928 37.8657 26.6445 37.8499C26.5657 37.8499 26.4712 37.8657 26.4712 37.9602C26.4712 38.0705 26.55 38.0862 26.6445 38.0862C26.8807 38.0862 27.1013 38.0862 27.3375 38.0862C27.4793 38.0862 27.5423 38.1335 27.5265 38.2752C27.5108 38.4957 27.495 38.7005 27.4163 38.9053C27.3375 39.1573 27.3375 39.4566 27.432 39.7401C27.5108 39.9763 27.4793 40.2284 27.4635 40.4646C27.369 40.5276 27.2745 40.4961 27.18 40.4961C27.0855 40.4961 27.0067 40.4804 26.9122 40.4804C26.8492 40.4804 26.7705 40.4646 26.7705 40.5591C26.7705 40.6536 26.8492 40.6694 26.9122 40.6694C27.0855 40.6851 27.306 40.5906 27.4163 40.7167C27.5265 40.8427 27.4478 41.0474 27.4478 41.2207C27.4478 41.3152 27.495 41.3624 27.5738 41.3624C27.6525 41.3624 27.6683 41.2837 27.6683 41.2207C27.6683 41.0789 27.684 40.9529 27.684 40.8112C27.684 40.6851 27.747 40.6379 27.8731 40.6536C27.9676 40.8899 27.8731 41.1734 28.0148 41.4097C28.0778 41.0159 28.1566 40.6221 28.0778 40.2284C27.8888 40.2126 27.9518 40.3859 27.8416 40.4331C27.8101 40.4174 27.7786 40.4174 27.747 40.4016C27.6683 40.3386 27.6368 39.8031 27.7155 39.7401C27.7786 39.6928 27.8731 39.6456 27.9046 39.7716C27.9361 39.8661 27.9676 39.9133 28.0936 39.8661C28.0463 39.5983 28.2511 39.3148 28.0463 39.047C27.8573 39.11 27.9203 39.2518 27.9046 39.3621C27.8888 39.4251 27.9203 39.5196 27.8101 39.5196C27.6998 39.5196 27.684 39.4408 27.684 39.3621C27.684 38.984 27.684 38.606 27.684 38.2437C27.684 38.0705 27.7786 38.0547 27.9046 38.1177C27.9046 38.354 27.9046 38.5902 27.9046 38.8108C27.9046 38.8738 27.9046 38.9368 27.9991 38.9525C28.0621 38.9683 28.0778 38.921 28.0936 38.8738C28.2196 38.6218 28.0936 38.1807 27.8888 38.0547C27.9046 38.0075 27.9361 37.9917 27.9676 37.9917C28.0148 37.9917 28.0621 37.9917 28.0621 37.9445C28.0936 37.6609 28.1093 37.3932 28.0621 37.1096C27.9046 37.1411 27.9203 37.2357 27.9203 37.3144C27.9203 37.4247 27.9046 37.5192 27.9203 37.6294C27.9203 37.7554 27.8888 37.8499 27.7628 37.8499C27.621 37.8499 27.5895 37.7397 27.5895 37.6137C27.5895 37.5034 27.5895 37.3932 27.5895 37.2829C27.5895 37.1569 27.6053 37.0624 27.7628 37.0624C27.8101 37.0624 27.8573 37.0466 27.8573 36.9836C27.8573 36.9049 27.8101 36.8891 27.747 36.8734C27.6053 36.8576 27.5895 36.7631 27.6053 36.6529C27.621 36.5584 27.6053 36.4796 27.6053 36.3851C27.6053 36.2433 27.6053 36.1016 27.8101 36.1173C27.8731 36.1173 27.8888 36.0701 27.8888 36.0228C27.8888 35.9756 27.8888 35.9126 27.8258 35.9126C27.6368 35.9126 27.684 35.755 27.6368 35.6605C27.6053 35.5818 27.621 35.4873 27.5265 35.44C27.3375 35.5503 27.5108 35.7865 27.3533 35.8968C27.243 36.0228 27.0382 35.9913 26.928 36.1803ZM24.9118 41.9925C25.0064 42.15 25.1796 42.2288 25.3056 42.339C25.3844 42.4178 25.4946 42.5438 25.6049 42.4808C25.7309 42.4178 25.6679 42.2603 25.6679 42.15C25.6837 40.1339 25.6836 38.1177 25.6994 36.0858C25.6994 35.9598 25.6994 35.8496 25.6837 35.7235C25.6837 35.6448 25.6364 35.5975 25.5576 35.6133C25.4789 35.6133 25.4789 35.6763 25.4789 35.7393C25.4789 35.8496 25.4789 35.9598 25.4789 36.0701C25.4789 36.3851 25.4789 36.7001 25.4789 37.0309C25.2426 36.9994 25.1009 37.1096 24.9591 37.1884C25.1954 37.4877 25.1954 37.8027 25.0221 38.1177C24.9906 38.165 24.9906 38.228 25.0221 38.2437C25.1796 38.3382 25.1009 38.48 25.1166 38.606C25.1324 38.7793 25.0379 38.9998 25.2426 39.1415C25.3056 39.0155 25.2899 38.921 25.2899 38.8108C25.2741 38.3855 25.2741 37.9445 25.2584 37.5192C25.2584 37.3774 25.2899 37.2829 25.4789 37.3459C25.4789 37.9287 25.4789 38.5115 25.4789 39.0943C25.4789 39.1258 25.4789 39.1888 25.4474 39.2045C25.3529 39.2833 25.3844 39.3306 25.4316 39.4251C25.5419 39.6613 25.4631 39.9291 25.4946 40.1654C25.4159 40.2126 25.3371 40.1811 25.3056 40.2441C25.3371 40.3386 25.4946 40.3544 25.4946 40.4804C25.4946 41.0002 25.4946 41.52 25.4946 42.0555C25.3056 42.0397 25.1324 41.8507 24.9118 41.9925ZM26.0302 42.0397C26.2349 41.8035 26.2507 41.8192 26.3925 42.0712C26.424 42.1343 26.487 42.1973 26.5342 42.2603C26.6445 42.4178 26.7862 42.3548 26.9122 42.276C27.054 42.1973 27.0382 42.087 26.9122 41.9925C26.8807 41.961 26.8492 41.9137 26.8807 41.8665C26.991 41.646 26.8492 41.6775 26.7075 41.6617C26.5342 41.646 26.3294 41.7562 26.2034 41.6617C26.0617 41.5515 26.1247 41.3152 26.1089 41.1419C26.1089 41.0789 26.1089 41.0002 26.0144 41.0002C25.9357 41.0002 25.9042 41.0632 25.9042 41.1262C25.9042 41.3782 25.9042 41.6302 25.9042 41.898C25.8884 41.9767 25.9514 42.0082 26.0302 42.0397ZM29.7474 39.4881C29.5742 39.6613 29.6529 39.8661 29.6372 40.0394C29.6214 40.2126 29.5269 40.4174 29.905 40.4174C30.1412 40.4174 30.3932 40.4646 30.6453 40.4961C30.787 40.5119 30.8815 40.4804 30.8658 40.3071C30.85 40.1181 30.724 40.1496 30.6138 40.1654C30.4562 40.1811 30.283 40.2126 30.1255 40.2441C29.8577 40.2914 29.8262 40.2756 29.8262 39.9921C29.8262 39.8346 29.9207 39.6613 29.7474 39.4881ZM27.5895 42.7328C27.6525 42.5438 27.5738 42.465 27.4163 42.4493C27.306 42.4335 27.1958 42.4493 27.0855 42.4808C26.8335 42.591 26.5972 42.6698 26.3925 42.402C26.2979 42.2918 26.2034 42.3233 26.1877 42.465C26.1719 42.5123 26.1562 42.5753 26.1562 42.6225C25.8884 42.654 25.8884 42.654 25.8097 42.7958C26.424 42.8588 27.0067 42.717 27.5895 42.7328ZM28.2038 42.5753C28.2038 42.591 28.2196 42.6225 28.2196 42.6383C28.6764 42.654 29.1331 42.654 29.6372 42.6068C29.4482 42.3705 29.1962 42.3233 29.0071 42.1658C28.9914 42.15 28.9284 42.1658 28.8969 42.1815C28.6606 42.3075 28.4243 42.4493 28.2038 42.5753ZM29.8104 40.6536C29.6844 40.6851 29.6529 40.7639 29.6529 40.8742C29.6529 41.2522 29.6529 41.6145 29.6529 41.9925C29.6529 42.0712 29.6687 42.1658 29.7632 42.1658C29.8892 42.1658 29.8735 42.0555 29.8735 41.9767C29.8735 41.6145 29.8892 41.2679 29.8892 40.9057C29.905 40.8112 29.8892 40.7166 29.8104 40.6536ZM27.8101 43.6306C27.8573 43.7094 27.9203 43.7566 27.9833 43.7724C28.4243 43.8669 28.8496 43.7881 29.2907 43.6936C29.3379 43.6779 29.3694 43.6306 29.3694 43.5834C29.3694 43.5204 29.3379 43.4731 29.2749 43.4573C29.1174 43.4258 28.9599 43.3471 28.8024 43.4101C28.5661 43.5046 28.2983 43.4889 28.0463 43.5519C27.9676 43.5519 27.8731 43.5361 27.8101 43.6306ZM29.8735 37.2829C29.8262 37.2356 29.8104 37.1254 29.7002 37.1569C29.6057 37.1884 29.6372 37.2829 29.6372 37.3459C29.6372 37.5192 29.6529 37.6924 29.6529 37.8657C29.6529 37.976 29.7002 38.0232 29.8262 37.9917C29.8577 37.7712 29.7947 37.5507 29.8577 37.3459C30.0467 37.2987 30.2672 37.4089 30.3932 37.1884C30.1097 37.1096 29.9837 37.1254 29.8735 37.2829ZM26.0144 38.8108C25.9042 38.9368 25.8569 39.5511 25.9199 39.6613C25.9514 39.7086 25.9829 39.7558 26.0459 39.7401C26.1247 39.7243 26.1562 39.6771 26.1562 39.5983C26.1562 39.4566 26.1562 39.3148 26.1404 39.173C26.1562 39.047 26.1877 38.9053 26.0144 38.8108ZM29.2277 35.9283C29.0071 35.8653 28.8181 35.9126 28.6134 35.8968C28.5504 35.8968 28.4874 35.8968 28.4716 35.9913C28.4559 36.0701 28.4874 36.1173 28.5504 36.1488C28.7866 36.3063 29.1331 36.1961 29.2277 35.9283ZM29.7317 35.8968C29.5899 36.7789 29.5899 36.9049 29.7632 37.0309C29.9207 36.7631 29.905 35.9913 29.7317 35.8968ZM26.0144 37.5507C25.8884 37.8499 25.9357 38.1335 25.9514 38.417C25.9514 38.4642 26.0144 38.48 26.0617 38.48C26.1247 38.48 26.1719 38.4327 26.1719 38.3697C26.1719 38.2437 26.1719 38.1177 26.1719 37.9917C26.1719 37.8657 26.2034 37.7082 26.0144 37.5507ZM29.8262 39.1415C29.7789 38.8738 29.9522 38.606 29.7317 38.3067C29.5742 38.5902 29.6529 38.8423 29.6529 39.0943C29.6529 39.1888 29.7317 39.173 29.8262 39.1415ZM29.3222 37.0151C29.0701 36.8576 28.7866 36.9049 28.5031 36.8891C28.5031 36.9364 28.4874 36.9836 28.4874 37.0466C28.7551 37.0939 29.0386 37.0466 29.3222 37.0151ZM28.0306 37.0309C28.0463 37.0309 28.0463 37.0309 28.0463 37.0309C28.1723 36.9679 28.3298 36.3693 28.2511 36.2591C28.2196 36.2118 28.1566 36.1961 28.1093 36.2118C28.0306 36.2276 27.9676 36.2591 27.9676 36.3536C27.9833 36.5899 27.9518 36.8104 28.0306 37.0309ZM28.0936 35.818C28.2511 35.818 28.3613 35.8023 28.3456 35.6605C28.3298 35.5188 28.2668 35.44 28.1251 35.44C27.9991 35.44 27.9203 35.4873 27.9361 35.6133C27.9361 35.755 28.0148 35.818 28.0936 35.818ZM27.9203 41.709C27.9991 41.9137 28.1566 41.961 28.2983 42.0397C28.3456 42.0555 28.4086 42.0555 28.4401 41.9925C28.4559 41.961 28.4559 41.898 28.4086 41.8665C28.2668 41.772 28.1251 41.6617 27.9203 41.709ZM26.1877 35.9756C26.1719 35.8811 26.1877 35.8023 26.1719 35.7078C26.1719 35.6448 26.1404 35.5975 26.0774 35.6133C26.0302 35.6133 25.9829 35.6448 25.9829 35.692C25.9829 35.8811 25.9829 36.0701 25.9829 36.2591C25.9829 36.3063 26.0144 36.3693 26.0932 36.3693C26.1562 36.3693 26.1877 36.3063 26.1877 36.2591C26.1877 36.1803 26.1877 36.0701 26.1877 35.9756ZM26.1719 36.9364C26.1719 36.8261 26.1719 36.7316 26.1719 36.6529C26.1719 36.5741 26.1562 36.5111 26.0617 36.5111C25.9672 36.5111 25.9829 36.5899 25.9672 36.6529C25.9672 36.7316 25.9514 36.8261 25.9672 36.9049C25.9829 37.0309 25.8727 37.2514 26.0774 37.2514C26.2822 37.2356 26.1404 37.0309 26.1719 36.9364ZM26.0932 39.8661C26.0617 39.8661 26.0459 39.8661 26.0144 39.8661C25.9199 39.9921 25.8569 40.6694 25.9357 40.7954C25.9514 40.8269 25.9987 40.8584 26.0302 40.8584C26.0774 40.8584 26.1247 40.8269 26.1247 40.7797C26.1247 40.4646 26.1089 40.1654 26.0932 39.8661ZM29.0701 38.102C28.9126 37.9287 28.7866 37.8814 28.6134 37.8657C28.5346 37.8657 28.4716 37.8972 28.4716 37.976C28.4716 38.0547 28.5189 38.102 28.6134 38.102C28.7394 38.102 28.8654 38.102 29.0701 38.102ZM30.2042 38.2595C30.2042 38.291 30.22 38.3067 30.22 38.3382C30.4247 38.3382 30.6295 38.3382 30.8343 38.3382C30.8973 38.3382 30.9603 38.3225 30.9603 38.228C30.9603 38.1492 30.8973 38.1177 30.8343 38.102C30.598 38.102 30.3775 38.102 30.2042 38.2595ZM26.487 38.8108C26.55 39.0155 26.8177 39.047 27.0382 38.8738C26.8492 38.8108 26.676 38.8423 26.487 38.8108ZM29.3064 40.2441C29.3537 40.0078 29.2434 39.9763 28.7709 40.0866C28.9756 40.1496 29.1174 40.2599 29.3064 40.2441ZM30.4562 41.5515C30.472 41.6302 30.5035 41.6932 30.598 41.7405C30.6925 41.7877 30.7555 41.772 30.8028 41.7247C30.85 41.6932 30.8815 41.6302 30.85 41.5672C30.8028 41.4885 30.724 41.52 30.661 41.52C30.598 41.4885 30.5192 41.4885 30.4562 41.5515ZM26.0459 35.2825C26.1562 35.4243 26.2822 35.4558 26.424 35.377C26.487 35.3455 26.5027 35.2195 26.4397 35.188C26.2979 35.1092 26.1719 35.1723 26.0459 35.2825ZM30.7555 35.8653C30.535 35.755 30.4405 35.9756 30.2987 36.0543C30.2515 36.0858 30.2987 36.1646 30.3775 36.1803C30.6138 36.2276 30.6925 36.1646 30.7555 35.8653ZM29.0859 35.251C29.0859 35.1407 28.9756 35.0935 28.8969 35.0462C28.8496 35.0147 28.8024 35.0777 28.8024 35.1407C28.8024 35.2668 28.8811 35.314 28.9914 35.3455C29.0544 35.3613 29.0859 35.3298 29.0859 35.251ZM27.5265 34.81C27.3218 34.7155 27.2115 34.9202 27.054 34.9202C27.2115 34.9045 27.4005 35.062 27.5265 34.81ZM29.4167 39.1258C29.2592 39.0313 29.0859 39.0155 28.8654 39.1415C29.0859 39.2203 29.2434 39.2045 29.4167 39.1258ZM28.6606 39.9133C28.6606 39.8346 28.6291 39.7716 28.5346 39.7716C28.4716 39.7716 28.3928 39.8031 28.4086 39.8818C28.4243 39.9606 28.4559 40.0394 28.5504 40.0394C28.6449 40.0394 28.6606 39.9763 28.6606 39.9133ZM24.9749 36.3693C25.1009 36.4323 25.2111 36.4638 25.3056 36.3378C25.3371 36.2906 25.3371 36.2276 25.2584 36.2118C25.1324 36.1961 25.0064 36.1646 24.9749 36.3693ZM29.7789 35.44C29.7002 35.5975 29.6687 35.7235 29.7789 35.8653C29.9365 35.7078 29.842 35.5975 29.7789 35.44ZM30.913 39.3148C30.8973 39.2675 30.8658 39.2045 30.8028 39.2203C30.7398 39.236 30.7083 39.2833 30.7083 39.3463C30.724 39.3936 30.7713 39.4251 30.8185 39.4251C30.8815 39.4251 30.913 39.3778 30.913 39.3148ZM26.0302 42.3705C26.0617 42.3705 26.0932 42.339 26.0774 42.2603C26.0774 42.213 26.0617 42.1658 25.9987 42.1658C25.9357 42.1658 25.8884 42.1973 25.8884 42.2603C25.8884 42.339 25.9357 42.3548 26.0302 42.3705ZM28.6606 38.9368C28.5661 38.8265 28.5189 38.858 28.4558 38.9525C28.5346 39.0155 28.5976 38.9998 28.6606 38.9368Z" fill="black"/>
<path d="M24.4235 44.4182C24.3763 44.3394 24.2818 44.3709 24.2345 44.3079C24.266 44.1189 24.4078 44.0087 24.5653 44.0402C24.8645 44.1032 25.2583 43.8826 25.4946 44.2764C25.2583 44.4654 25.3056 44.6387 25.6206 44.812C25.6994 44.749 25.6679 44.6702 25.6679 44.5914C25.6836 44.4812 25.7309 44.4024 25.8254 44.3394C25.8884 44.2922 25.9514 44.2607 26.0301 44.3237C26.0931 44.3709 26.0616 44.4339 26.0301 44.4969C25.9514 44.623 26.0144 44.7647 25.9671 44.8907C25.9199 45.064 25.8569 45.2372 25.6679 45.3475C25.5103 45.442 25.2741 45.5523 25.4946 45.8358C25.0693 45.8358 24.6755 45.8358 24.2975 45.8358C24.2503 45.8358 24.1872 45.8043 24.203 45.757C24.2345 45.6153 24.1242 45.5208 24.077 45.4105C23.9037 45.0797 23.9195 44.9537 24.2345 44.686C24.329 44.6072 24.4078 44.5284 24.4235 44.4182Z" fill="black"/>
<path d="M7.05005 41.9295C7.0658 41.9295 7.0658 41.9138 7.08155 41.9138C7.08155 41.9295 7.0658 41.9295 7.0658 41.9453C7.0658 41.9453 7.0658 41.9295 7.05005 41.9295Z" fill="#0B81CB"/>
<path d="M22.1553 58.4367C22.0136 58.3264 21.8718 58.2162 21.8876 57.9956C21.9033 57.4601 21.9033 56.9246 21.9191 56.389C21.9191 56.1843 21.9033 56.0898 21.6671 56.1213C21.4938 56.137 21.3048 56.0898 21.1158 56.074C20.9898 56.074 20.8638 56.0425 20.722 56.1055C21.0528 56.3103 21.3205 56.5465 21.3993 56.9403C21.4308 57.1293 21.3993 57.2868 21.289 57.4286C21.1788 57.5546 21.0685 57.6491 20.8953 57.5546C20.7692 57.4916 20.659 57.3971 20.6747 57.2396C20.6905 57.0663 20.8322 57.0033 20.9898 56.9718C21.0213 56.9718 21.0685 56.9561 21.1 56.9561C21.0843 56.7198 20.9268 56.5623 20.6275 56.5308C20.5015 57.0978 20.5645 57.6806 20.407 58.2634C20.2652 58.1847 20.2967 58.0272 20.2337 57.9169C20.0604 57.5861 19.8084 57.3341 19.4461 57.2396C19.2099 57.1766 19.1626 56.9718 19.0366 56.8301C18.9736 56.7671 19.0524 56.7041 19.1154 56.6726C19.4777 56.4363 19.8557 56.2788 20.2652 56.137C20.218 56.0268 20.1392 56.011 20.0447 56.011C19.7454 55.9953 19.4619 55.9638 19.1626 55.948C18.3121 55.9165 17.8238 56.7198 17.9813 57.4916C18.0128 57.6649 18.1073 57.6806 18.2176 57.5389C18.3278 57.4129 18.4381 57.2869 18.6271 57.4129C18.7688 57.4916 18.8791 57.6176 18.8004 57.7909C18.7216 57.9799 18.5798 58.1059 18.3593 58.1059C18.0916 58.0902 17.808 57.8696 17.7293 57.5861C17.5875 57.0821 17.6348 56.5938 17.9498 56.1528C17.9813 56.1213 17.997 56.074 18.0285 56.0268C18.1546 55.8692 18.0758 55.822 17.9183 55.7905C17.7608 55.759 17.6033 55.7432 17.4458 55.7432C17.2567 55.7432 17.241 55.9007 17.2252 56.0268C17.1622 56.4048 17.115 56.7828 17.0047 57.1451C16.9102 57.4444 16.926 57.7594 16.9102 58.0902C16.7685 57.9011 16.6424 57.7436 16.5637 57.5389C16.5007 57.3341 16.2802 57.3499 16.1227 57.3184C15.9021 57.2711 15.6659 57.3026 15.4296 57.2238C14.9571 57.0506 14.7681 56.4993 15.0673 56.137C15.1618 56.2 15.1303 56.2945 15.1303 56.3733C15.1461 56.578 15.2563 56.7198 15.4611 56.7828C15.8391 56.8931 16.2487 56.9246 16.5952 57.1451C16.8 56.9718 16.9102 56.452 16.7842 56.2158C16.7212 56.0898 16.6267 56.1213 16.5479 56.1685C16.3747 56.263 16.1857 56.3575 16.0439 56.4835C15.8234 56.6883 15.6501 56.6411 15.4769 56.4363C15.4926 56.3418 15.6029 56.326 15.6501 56.263C15.6974 56.1843 15.7604 56.1213 15.7131 56.0268C15.6816 55.948 15.6029 55.948 15.5241 55.9638C15.3981 55.9638 15.2721 55.9638 15.2091 55.8377C15.1461 55.6802 15.2563 55.6015 15.3509 55.507C15.7604 55.0659 16.4377 55.1289 16.8 55.6172C16.8472 55.6802 16.863 55.7432 16.9732 55.759C17.052 55.5227 17.0835 55.2865 17.1307 55.0502C17.2095 55.0344 17.2567 55.0974 17.2567 55.1289C17.304 55.4125 17.5088 55.3967 17.7135 55.4282C18.8004 55.6172 19.9029 55.6802 21.0055 55.759C21.2575 55.7747 21.5095 55.7747 21.7773 55.7747C21.8561 55.7747 21.9348 55.759 21.9348 55.6802C21.9506 55.57 21.8561 55.5542 21.7773 55.5385C21.4938 55.507 21.2103 55.4912 20.9268 55.4597C20.6747 55.4282 20.4542 55.3495 20.3597 55.0659C20.3282 54.9557 20.3282 54.8612 20.3755 54.7667C20.407 54.6879 20.4385 54.5934 20.5487 54.6407C20.6275 54.6722 20.596 54.7509 20.5645 54.8297C20.5015 55.0029 20.6275 55.0817 20.7692 55.0974C20.9425 55.1132 21.1 55.0974 21.2733 55.1132C21.4308 55.1132 21.5883 55.1132 21.7458 55.1289C22.0136 55.1604 22.1868 55.3495 22.2341 55.6015C22.2498 55.7275 22.2814 55.7905 22.4231 55.7905C22.7224 55.7747 23.0374 55.7275 23.2579 56.011C23.2894 56.0425 23.3682 56.0268 23.4154 55.948C23.4627 55.8535 23.5572 55.8062 23.6517 55.7432C23.8092 55.633 23.9352 55.6645 24.0612 55.7747C24.1557 55.8535 24.2502 55.9322 24.3605 56.0268C24.4393 55.7432 24.2502 55.507 24.329 55.255C24.4078 55.2707 24.5023 55.3022 24.518 55.3652C24.5968 55.633 24.8015 55.5857 24.9905 55.5542C25.6048 55.444 26.2349 55.3337 26.8492 55.2234C27.0539 55.1919 27.1957 55.2865 27.3217 55.4282C26.9752 55.5385 26.9752 55.5385 27.0382 55.9165C27.1485 56.5308 27.243 57.1608 27.3532 57.7909C27.1485 57.7121 27.0224 57.6334 26.9909 57.4129C26.9594 57.0821 26.8807 56.7513 26.8177 56.4205C26.8019 56.3418 26.7704 56.2788 26.7232 56.2315C26.6602 56.1685 26.5972 56.1213 26.4869 56.1528C26.3924 56.2 26.3766 56.263 26.3924 56.3418C26.4082 56.452 26.4082 56.5308 26.2821 56.5623C26.1246 56.2 25.7624 56.137 25.5103 56.4048C25.4631 56.4678 25.4316 56.515 25.4316 56.5938C25.4316 56.6726 25.4158 56.7671 25.5103 56.7986C25.6048 56.8301 25.6206 56.7356 25.6521 56.6726C25.7309 56.515 25.8411 56.4835 25.9986 56.5308C26.1719 56.578 26.2506 56.6883 26.2191 56.8616C26.2034 57.0348 26.0774 57.1136 25.9356 57.1608C25.4631 57.2868 25.022 56.8931 25.1166 56.4205C25.1953 55.9638 25.3843 55.8535 25.8411 55.9638C25.9829 55.9953 26.0774 56.011 26.1719 55.885C26.3136 55.6645 26.5027 55.822 26.6602 55.8692C26.7389 55.6172 26.6917 55.5542 26.4712 55.5857C25.8726 55.6802 25.2741 55.759 24.6598 55.8535C24.6755 56.6095 24.833 57.3814 24.8488 58.1847C24.644 58.1059 24.5338 57.9957 24.518 57.7909C24.4865 57.4129 24.4393 57.0506 24.4235 56.6726C24.4078 56.452 24.2817 56.2945 24.1242 56.1685C24.0297 56.0898 23.9195 56.0898 23.825 56.1685C23.8092 56.2945 23.9352 56.326 23.9982 56.389C24.14 56.5308 24.203 56.6726 24.1085 56.8616C23.9982 57.0663 23.825 57.0191 23.6675 56.9718C23.5729 56.9561 23.4942 56.9088 23.3997 56.9876C23.2579 57.0978 23.0847 57.1608 22.9271 57.0033C22.8011 56.8931 22.8011 56.6253 22.9114 56.452C22.9744 56.3575 23.1319 56.2945 23.0532 56.1528C22.9744 56.0425 22.8326 56.074 22.6909 56.0898C22.2026 56.1213 22.2026 56.1213 22.1868 56.6253C22.1868 57.2081 22.1868 57.8066 22.1868 58.3894C22.2341 58.4209 22.1868 58.4367 22.1553 58.4367ZM20.2022 57.3656C20.281 57.0821 20.281 56.8301 20.2495 56.578C20.0289 56.578 19.8714 56.6726 19.7297 56.7671C19.6824 56.7986 19.6194 56.8773 19.6667 56.9246C19.8399 57.0506 19.9659 57.2396 20.2022 57.3656ZM15.8706 55.633C15.9494 55.759 15.9494 55.948 16.1227 55.9638C16.2802 55.9638 16.4219 55.8692 16.5007 55.7117C16.2959 55.4755 16.1542 55.4597 15.8706 55.633Z" fill="black"/>
<path d="M31.5588 56.6568C31.228 56.4521 31.1178 56.0583 30.7397 55.9953C30.6767 56.011 30.661 56.1055 30.6137 56.1685C30.3617 56.4836 29.9994 56.5466 29.6372 56.3575C29.2434 56.1528 28.9756 55.822 28.7236 55.4755C28.5976 55.3022 28.4716 55.129 28.1723 55.0502C29.1804 54.6249 30.2042 54.4359 31.1493 53.9791C30.8185 53.5853 30.976 53.0026 31.417 52.7505C31.8423 52.4985 32.6771 52.4828 33.1654 52.908C33.2914 53.0183 33.4017 52.9553 33.4962 52.8923C33.764 52.7348 34.016 52.5615 34.268 52.3883C34.5673 52.1835 34.8823 51.9787 35.1816 51.774C35.3548 51.6637 35.4966 51.774 35.6856 51.7897C35.2446 52.089 34.835 52.3725 34.4097 52.6403C34.2522 52.7348 34.2365 52.845 34.3467 52.9711C34.4728 53.0971 34.4885 53.3176 34.7248 53.3491C34.8193 53.0498 34.9138 52.7505 35.1028 52.4985C35.2446 52.3095 35.4336 52.4355 35.6068 52.4198C35.7328 52.404 35.7328 52.5143 35.7486 52.6088C35.7958 53.1286 36.0636 53.5538 36.4101 53.9319C36.4416 53.9634 36.4574 53.9949 36.4889 54.0264C36.4889 54.0264 36.4889 54.0421 36.4889 54.0579C36.3629 54.1839 36.2841 54.0736 36.2054 53.9949C35.9376 53.7429 35.6698 53.4751 35.5123 53.1286C35.4808 53.0813 35.4493 53.0341 35.3548 53.0341C35.1501 53.3491 35.1028 53.7114 35.1973 54.1366C34.9453 54.0579 34.7248 54.0894 34.583 53.8374C34.4413 53.6011 34.2522 53.3806 34.1105 53.1443C34.0002 52.9396 33.8742 53.0026 33.7325 53.0813C33.5749 53.1601 33.5592 53.2546 33.6379 53.4121C33.953 54.0106 34.268 54.6249 34.583 55.2235C34.5988 55.255 34.6145 55.2865 34.6303 55.318C34.52 55.3022 34.457 55.2707 34.3782 55.2077C34.016 54.8927 33.5907 54.7982 33.1497 54.9084C32.8819 54.9714 32.7086 54.8297 32.5196 54.7352C32.5669 54.5462 32.7086 54.4359 32.6929 54.2469C32.5669 54.1524 32.3779 54.1839 32.2833 54.0264C32.1101 53.7901 32.2203 53.4436 32.5039 53.3806C32.6299 53.3491 32.7559 53.3806 32.8189 53.4908C32.8819 53.6011 32.7716 53.6799 32.6929 53.7429C32.6614 53.7586 32.6456 53.7744 32.6141 53.8059C32.6929 54.0106 32.8189 53.9476 32.9291 53.8689C33.1812 53.6799 33.2599 53.3806 33.1812 53.0813C33.1654 53.0183 33.1339 52.971 33.0709 52.9395C32.6299 52.7978 32.1888 52.7033 31.7636 52.9711C31.5115 53.1286 31.4013 53.3491 31.4013 53.6168C31.4013 53.7744 31.4643 53.8374 31.6218 53.7901C31.7636 53.7429 31.8896 53.7744 31.9841 53.9004C31.7321 54.1051 31.7321 54.1051 31.8581 54.4044C32.0943 54.9084 32.2676 55.444 32.5196 55.9323C32.5511 55.9953 32.5826 56.074 32.5511 56.1528C32.2676 56.1843 32.1888 55.9795 32.1101 55.7748C31.9211 55.3495 31.7478 54.9242 31.5588 54.4989C31.5273 54.4044 31.4958 54.2626 31.3698 54.2784C31.228 54.2784 31.0705 54.3572 30.9603 54.4517C30.8972 54.5147 30.9603 54.5934 30.976 54.6722C31.1493 55.318 31.3698 55.948 31.5588 56.6568ZM29.3694 54.9714C29.1331 54.9872 28.9284 55.0502 28.7393 55.1447C28.7866 55.3337 28.9441 55.4282 29.0386 55.57C29.2276 55.885 29.5584 55.9795 29.8892 56.011C30.0152 56.0268 30.1569 55.9953 30.2672 55.9008C30.3617 55.822 30.4247 55.7117 30.3932 55.5857C30.346 55.4597 30.3145 55.318 30.1727 55.2707C30.0152 55.2235 29.9994 55.381 29.9364 55.4597C29.8419 55.5857 29.7317 55.57 29.6057 55.5542C29.4796 55.5385 29.4009 55.444 29.3536 55.318C29.3221 55.2077 29.3851 55.1132 29.3694 54.9714ZM30.5507 54.5462C30.2987 54.6249 30.0624 54.6722 29.8419 54.8454C30.3617 54.8612 30.5507 55.3022 30.85 55.5857C30.8027 55.2235 30.724 54.8927 30.5507 54.5462ZM33.0867 54.5147C33.3544 54.4989 33.5907 54.6407 33.8742 54.6092C33.764 54.3729 33.6694 54.1839 33.5592 53.9791C33.5119 53.9004 33.4489 53.8059 33.3702 53.9004C33.2127 54.0736 33.0552 54.2469 33.0867 54.5147Z" fill="black"/>
<path d="M38.6468 48.8915C38.3791 49.0805 38.4421 49.2065 38.6311 49.3798C39.0564 49.7421 39.4659 50.1359 39.8754 50.5139C39.9384 50.5769 40.0172 50.6399 40.0487 50.7344C39.9384 50.7659 39.8439 50.7344 39.7494 50.7029C39.2926 50.6084 38.8673 50.6084 38.4736 50.9077C38.3003 51.0337 38.0955 50.9392 37.8908 50.9549C37.8435 50.4194 38.0798 49.9626 38.2215 49.5058C38.1585 49.4428 38.127 49.4586 38.0798 49.5216C37.7648 49.8523 37.4497 50.1831 37.1347 50.5296C37.0717 50.5926 37.0717 50.6556 37.1347 50.7344C37.3395 51.0022 37.5442 51.2227 37.9065 51.3172C38.316 51.4117 38.4893 51.9472 38.2688 52.2938C38.0325 52.6718 37.6703 52.8135 37.245 52.782C36.6779 52.7348 36.1896 52.4513 35.7329 52.1205C35.7171 52.1047 35.7014 52.0732 35.6856 52.0102C35.8431 51.9787 35.8746 51.8842 35.8589 51.7425C35.8274 51.2542 36.0479 50.8762 36.6149 50.8919C36.6779 50.8919 36.7409 50.8762 36.7882 50.8289C36.6937 50.6084 36.4574 50.4981 36.3787 50.2776C36.4102 50.2776 36.4417 50.2619 36.4574 50.2619C36.8039 50.4824 37.0087 50.2619 37.2292 50.0256C37.5285 49.6948 37.8435 49.364 38.1428 49.0175C38.2688 48.86 38.4263 48.8758 38.6468 48.8915ZM36.1109 51.9787C36.1266 52.0417 36.1424 52.089 36.2054 52.1205C36.4889 52.2465 36.7882 52.3725 37.1032 52.404C37.4655 52.4355 37.8908 52.1678 37.9853 51.8527C38.0325 51.6795 37.9853 51.5535 37.8593 51.4432C37.7648 51.3644 37.6545 51.3487 37.5757 51.459C37.7333 51.7582 37.7333 51.7582 37.7175 51.8212C37.6703 52.0102 37.497 52.1362 37.3395 52.089C37.1505 52.026 37.0087 51.7582 37.0875 51.5692C37.119 51.4747 37.182 51.3959 37.2292 51.3014C37.182 51.2069 37.119 51.1439 37.0245 51.1754C36.9142 51.2069 36.9299 51.3014 36.9299 51.3959C36.9142 51.5692 36.9299 51.7267 36.8827 51.9C36.8512 52.026 36.7409 52.0417 36.6464 52.0575C36.5204 52.0732 36.5519 51.963 36.5204 51.8842C36.5047 51.837 36.4889 51.774 36.4259 51.7582C36.2999 51.837 36.2054 51.9 36.1109 51.9787ZM38.5681 49.7578C38.3948 49.9941 38.3948 50.2461 38.3633 50.5296C38.6783 50.4509 38.9461 50.4194 39.2926 50.4036C39.0406 50.1359 38.8516 49.9311 38.5681 49.7578ZM36.5519 51.1439C36.3629 51.1597 36.2684 51.2542 36.2842 51.3959C36.2842 51.4905 36.4102 51.5062 36.4732 51.4747C36.6464 51.4274 36.5519 51.2857 36.5519 51.1439Z" fill="black"/>
<path d="M7.61707 50.9707C8.01084 50.2304 8.38887 49.5373 8.75115 48.8285C8.7984 48.7498 8.84565 48.671 8.95591 48.734C9.39694 48.986 9.85373 49.2065 10.279 49.4743C10.7988 49.8051 10.8775 50.4194 10.6255 50.9707C10.4523 51.3329 10.216 51.6322 9.82222 51.7582C9.58596 51.837 9.34969 51.837 9.12917 51.7425C8.90866 51.648 8.68814 51.5535 8.48338 51.4432C8.18411 51.2857 7.88483 51.1597 7.61707 50.9707ZM10.1845 50.2146C10.1845 50.0571 10.1372 49.9311 10.0112 49.8208C9.82222 49.6318 9.58596 49.5373 9.38119 49.4113C9.22368 49.3168 9.14493 49.3641 9.06617 49.5058C8.90866 49.8051 8.7669 50.1044 8.59364 50.3879C8.29436 50.8919 8.29436 50.9234 8.81415 51.1754C9.00317 51.2699 9.19218 51.3645 9.42845 51.3172C9.77497 51.2542 10.2003 50.6399 10.1845 50.2146Z" fill="black"/>
<path d="M24.5023 54.5619C24.392 54.0106 24.2975 53.4593 24.1873 52.9081C24.14 52.6718 24.1085 52.4355 24.0613 52.1993C24.0298 52.0417 24.077 51.9787 24.2345 51.963C24.6441 51.9 24.6441 51.9 24.7071 52.3253C24.7701 52.9396 24.7701 52.9396 25.3686 52.845C25.5419 52.8135 25.7309 52.7663 25.9042 52.7505C26.0774 52.7348 26.1089 52.6403 26.0774 52.4985C26.0459 52.3095 26.0144 52.1205 25.9672 51.9315C25.9357 51.7582 25.9357 51.648 26.1562 51.648C26.2664 51.6322 26.3924 51.585 26.5342 51.6007C26.5972 51.9 26.676 52.1992 26.7232 52.4985C26.7862 53.0026 26.865 53.5066 26.991 54.0106C27.0225 54.1051 27.0067 54.1996 26.8965 54.1996C26.739 54.2154 26.5815 54.2784 26.4082 54.2469C26.3609 53.9634 26.2979 53.6956 26.2507 53.4121C26.2192 53.2231 26.1404 53.1286 25.9357 53.1916C25.6521 53.2546 25.3686 53.3018 25.0851 53.3491C24.9118 53.3806 24.8961 53.4751 24.9276 53.6011C25.0063 53.8374 24.9906 54.0894 25.0536 54.3257C25.0851 54.4517 25.0693 54.5462 24.8961 54.5462C24.7858 54.5304 24.6598 54.6249 24.5023 54.5619Z" fill="black"/>
<path d="M33.0237 52.0575C32.5826 51.2857 32.1573 50.5454 31.7163 49.7736C32.2046 49.5058 32.6614 49.238 33.1182 48.986C33.2599 48.9072 33.4174 48.8285 33.5592 48.734C33.7167 48.6395 33.7955 48.6867 33.89 48.8285C33.9687 48.986 33.89 49.0175 33.7797 49.0805C33.4174 49.2853 33.0552 49.5058 32.6771 49.7105C32.5354 49.7893 32.4409 49.8838 32.5669 50.0413C32.6771 50.1831 32.6929 50.4509 32.9921 50.2618C33.3072 50.0571 33.6379 49.8996 33.9687 49.7105C34.0317 49.679 34.0947 49.6318 34.1892 49.6318C34.2207 49.679 34.2365 49.7578 34.2837 49.8051C34.3625 49.9153 34.3152 49.9783 34.205 50.0413C33.8742 50.2303 33.5434 50.4351 33.1969 50.6241C33.0237 50.7186 33.0394 50.8289 33.1024 50.9706L33.1182 50.9864C33.3544 51.4117 33.3859 51.4117 33.8112 51.1754C34.1735 50.9549 34.5358 50.7501 34.898 50.5454C35.0083 50.5769 35.0083 50.6871 35.0713 50.7501C35.1343 50.8131 35.1186 50.9076 35.0398 50.9549C34.3625 51.3172 33.7167 51.6794 33.0237 52.0575Z" fill="black"/>
<path d="M15.8549 54.1052C16.0124 53.2231 16.1542 52.3725 16.3117 51.5062C16.9102 51.6165 17.493 51.648 18.0601 51.837C18.4539 51.9788 18.6429 52.3095 18.5799 52.7348C18.5326 53.0183 18.2806 53.3019 17.8553 53.3491C17.5245 53.3806 17.2253 53.2861 16.9102 53.2546C16.7055 53.2388 16.6425 53.3176 16.611 53.4909C16.5637 53.7271 16.5637 53.9634 16.4535 54.1997C16.2487 54.1682 16.0754 54.1367 15.8549 54.1052ZM17.3985 52.9238C17.7293 52.9238 17.9183 52.8136 17.9656 52.6088C18.0128 52.4198 17.8711 52.215 17.6505 52.1363C17.4458 52.0733 17.2253 52.0418 17.0048 52.0103C16.9417 51.9945 16.8945 52.0103 16.863 52.0733C16.8 52.2938 16.6897 52.53 16.7685 52.7506C16.8315 52.9081 17.0678 52.8608 17.2253 52.8923C17.2883 52.9238 17.367 52.9238 17.3985 52.9238Z" fill="black"/>
<path d="M39.4028 51.0652C39.3871 51.2542 39.2768 51.3172 39.1351 51.333C38.9776 51.3487 38.8988 51.2385 38.8831 51.1124C38.8673 50.9707 38.9618 50.8447 39.1193 50.8447C39.2926 50.8132 39.3556 50.9392 39.4028 51.0652Z" fill="black"/>
</svg>
