<svg width="18" height="24" viewBox="0 0 18 24" fill="none" xmlns="http://www.w3.org/2000/svg">
<path d="M15.78 11.4605C15.8367 11.618 15.8997 11.7755 15.9123 11.9457C15.8997 12.0213 15.9375 12.0969 15.9312 12.1662C15.9249 12.2103 15.9627 12.2103 15.9879 12.2292C15.9879 12.2355 15.9942 12.2355 15.9879 12.2418C15.9942 12.3174 15.9879 12.393 16.0005 12.4686C16.032 12.708 16.1013 12.9411 16.0887 13.1805C16.0824 13.3444 16.0887 13.5145 16.0887 13.6783C16.0887 13.8421 16.0761 14.0059 16.0572 14.176C16.0383 14.3335 15.9879 14.4784 15.9627 14.6297C15.9186 14.8565 15.8556 15.077 15.7863 15.2975C15.7107 15.5495 15.6162 15.7952 15.5154 16.041C15.4209 16.2678 15.3075 16.4883 15.2004 16.7151C15.1689 16.7781 15.1437 16.8411 15.1122 16.9041C14.9421 17.1813 14.7845 17.4712 14.5829 17.7232C14.4254 17.9248 14.2868 18.1453 14.1104 18.3343C14.0348 18.4162 13.9466 18.4981 13.8773 18.5863C13.7576 18.7438 13.6127 18.8699 13.4614 18.9896C13.1842 19.2227 12.9007 19.4369 12.5857 19.6196C12.4156 19.7141 12.2518 19.8149 12.0753 19.8968C11.7099 20.0732 11.3319 20.2119 10.9413 20.3253C10.7081 20.3946 10.4687 20.4576 10.2293 20.4954C9.9836 20.5332 9.73788 20.6025 9.47956 20.5836C9.46066 20.5836 9.44806 20.5836 9.42916 20.5836C8.98812 20.6529 8.54079 20.6214 8.09976 20.6088C7.72803 20.6025 7.35631 20.5647 6.98458 20.5017C6.92788 20.4954 6.88377 20.4576 6.82707 20.445C6.73256 20.4261 6.63806 20.4324 6.54355 20.4135C6.20332 20.3253 5.8694 20.2371 5.54178 20.111C5.34016 20.0354 5.14485 19.9409 4.94953 19.8527C4.84873 19.8023 4.74792 19.7204 4.62191 19.733C4.61561 19.7078 4.59671 19.6889 4.57151 19.67C4.5085 19.6322 4.4392 19.607 4.38249 19.5629C4.06747 19.3487 3.75245 19.1408 3.46263 18.8888C3.21691 18.6682 2.97749 18.4477 2.75698 18.1957C2.65617 18.076 2.56796 17.95 2.44825 17.8366C2.35375 17.7421 2.29704 17.6098 2.22144 17.4901C2.06393 17.2506 1.93792 16.9923 1.80561 16.7403C1.6607 16.4568 1.54099 16.1607 1.44648 15.8519C1.38348 15.6377 1.32047 15.4235 1.27007 15.2093C1.22597 15.0077 1.18186 14.8061 1.15666 14.6045C1.13146 14.3965 1.07476 14.1949 1.07476 13.9807C1.07476 13.8484 1.06215 13.7161 1.04325 13.5838C1.01175 13.3255 0.986549 13.0608 1.01175 12.7962C1.03695 12.5316 1.06846 12.2733 1.13146 12.015C1.22597 11.6369 1.33307 11.2652 1.46538 10.8998C1.54729 10.6604 1.667 10.4336 1.77411 10.2067C1.84971 10.0429 1.90642 9.86651 2.00092 9.709C2.08913 9.55779 2.15213 9.38767 2.24034 9.24276C2.32855 9.09155 2.39155 8.92774 2.47976 8.77653C2.59316 8.58752 2.69397 8.3922 2.81368 8.20319C2.96489 7.96377 3.1098 7.72436 3.26101 7.48494C3.39332 7.27702 3.51933 7.06911 3.66424 6.87379C3.89736 6.54617 4.13678 6.21855 4.36359 5.88462C4.54631 5.62 4.74162 5.36799 4.91173 5.09707C5.04404 4.88915 5.20155 4.70644 5.34016 4.50482C5.44727 4.35361 5.57328 4.2087 5.67409 4.05119C5.78119 3.88738 5.8946 3.72987 6.00801 3.56606C6.22223 3.25733 6.44904 2.94861 6.66956 2.63989C6.85227 2.38787 7.03498 2.14215 7.2177 1.89644C7.37521 1.67592 7.53902 1.4554 7.69023 1.22859C7.81624 1.03957 7.94225 0.856862 8.08086 0.674148C8.18797 0.535538 8.28877 0.390628 8.39588 0.258319C8.46519 0.176413 8.50929 0.069305 8.6038 0C8.78651 0.264619 8.96922 0.516637 9.13934 0.774956C9.29685 1.00177 9.44806 1.24119 9.60557 1.46801C9.75678 1.68852 9.90799 1.90904 10.0655 2.13585C10.1915 2.32487 10.3175 2.50758 10.4435 2.69659C10.6136 2.94231 10.7838 3.19433 10.9539 3.44005C11.0925 3.63536 11.2311 3.83698 11.3634 4.03229C11.4516 4.1583 11.5524 4.27801 11.628 4.41032C11.7729 4.66864 11.9682 4.89545 12.1195 5.14747C12.2266 5.31758 12.3526 5.47509 12.4723 5.64521C12.592 5.81532 12.7054 5.98543 12.8188 6.15554C12.9259 6.30675 13.033 6.45796 13.1401 6.60918C13.2661 6.78559 13.3858 6.9683 13.5182 7.14471C13.619 7.27702 13.7009 7.41563 13.8143 7.54164C13.8899 7.62985 13.9466 7.73696 14.0096 7.83146C14.1923 8.09608 14.3561 8.3796 14.5199 8.65682C14.6522 8.87734 14.7782 9.10416 14.8979 9.33097C14.9799 9.48848 15.0618 9.64599 15.1311 9.80351C15.2508 10.0807 15.3642 10.3579 15.4713 10.6415C15.4965 10.7108 15.5154 10.7927 15.5847 10.8431C15.591 10.8557 15.5973 10.8683 15.6036 10.8809C15.591 10.9754 15.6225 11.0636 15.6477 11.1455C15.6729 11.2211 15.6792 11.3156 15.7611 11.366V11.3723C15.7611 11.4038 15.7422 11.4416 15.78 11.4605ZM10.9791 5.32388C10.9854 5.28608 10.9728 5.26088 10.9539 5.22938C10.8342 5.05926 10.7144 4.88915 10.6073 4.70644C10.4435 4.44182 10.2545 4.2024 10.097 3.93778C10.0277 3.81807 9.94579 3.71097 9.87019 3.59756C9.75678 3.44005 9.65597 3.26994 9.54256 3.10612C9.41656 2.92971 9.29685 2.747 9.17084 2.57058C9.08893 2.45718 9.02593 2.33117 8.94402 2.21776C8.81801 2.04135 8.7046 1.85863 8.5849 1.67592C8.50299 1.54991 8.47779 1.55621 8.38958 1.67592C8.26357 1.83973 8.16907 2.02245 8.03676 2.18626C7.84774 2.42567 7.67763 2.68399 7.50122 2.93601C7.37521 3.11872 7.2492 3.30144 7.12319 3.47785C6.95308 3.72357 6.77667 3.96299 6.60655 4.2087C6.32303 4.61193 6.03321 5.01516 5.75599 5.41839C5.71189 5.48139 5.64258 5.5444 5.64258 5.63891C5.63628 5.64521 5.62998 5.65151 5.62368 5.65781C5.58588 5.67671 5.54808 5.70191 5.52288 5.73971C5.39057 5.93503 5.25196 6.13034 5.11965 6.31935C4.99994 6.49577 4.88653 6.67218 4.75422 6.83599C4.63451 6.9872 4.54631 7.16362 4.4266 7.31483C4.21868 7.58575 4.04857 7.88187 3.85956 8.16539C3.70204 8.4048 3.56343 8.66312 3.41222 8.91514C3.27361 9.14826 3.16651 9.39398 3.0279 9.62079C2.97119 9.7153 2.93339 9.80981 2.88299 9.90431C2.83258 9.99882 2.78218 10.087 2.73808 10.1752C2.66877 10.3201 2.61207 10.4651 2.54906 10.6037C2.41045 10.9061 2.30334 11.2274 2.19624 11.5424C2.13953 11.7062 2.10173 11.8701 2.05763 12.0402C1.98832 12.33 1.93792 12.6261 1.92532 12.9285C1.91272 13.2373 1.95682 13.5397 1.96942 13.8421C1.98202 14.0437 2.00722 14.239 2.03873 14.4343C2.07023 14.6423 2.12063 14.8502 2.16473 15.0581C2.17734 15.1337 2.17734 15.2156 2.25294 15.266C2.25924 15.2912 2.24664 15.3227 2.27184 15.3479C2.26554 15.455 2.32855 15.5495 2.34115 15.6503C2.34745 15.6755 2.36005 15.7259 2.41045 15.7322C2.41045 15.7385 2.41045 15.7385 2.41045 15.7448C2.38525 15.8771 2.46086 15.9842 2.50496 16.0977C2.59947 16.3182 2.70657 16.5324 2.81998 16.7466L2.82628 16.7529C2.81368 16.8096 2.87669 16.8222 2.89559 16.86C2.95859 17.0175 3.072 17.1435 3.17281 17.2758C3.36812 17.5405 3.58234 17.7925 3.82805 18.013C4.08637 18.2461 4.34469 18.4792 4.64081 18.6619C4.93063 18.8447 5.22675 19.0274 5.54808 19.1597C5.65519 19.2038 5.75599 19.2542 5.8631 19.292C6.08362 19.3802 6.31673 19.4432 6.54355 19.5062C6.82707 19.5818 7.11059 19.6448 7.39411 19.6826C7.80364 19.7393 8.21317 19.7267 8.6227 19.7519C8.88732 19.7645 9.15194 19.7519 9.41656 19.7204C9.70008 19.6889 9.9773 19.6511 10.2545 19.5881C10.5758 19.5188 10.8846 19.3991 11.187 19.2857C11.2689 19.2542 11.3697 19.229 11.4327 19.1723C11.5209 19.0967 11.6217 19.0652 11.7162 19.0148C11.943 18.8825 12.1573 18.7375 12.3652 18.58C12.5731 18.4225 12.7747 18.2461 12.9574 18.0571C13.1338 17.8744 13.3039 17.6917 13.4551 17.4901C13.7261 17.1435 13.9655 16.7781 14.1734 16.3938C14.3309 16.0977 14.4695 15.7952 14.5829 15.4802C14.6648 15.2534 14.753 15.0329 14.8097 14.7998C14.8412 14.6738 14.8916 14.554 14.9169 14.428C14.961 14.1949 14.9862 13.9555 15.0051 13.7224C15.024 13.483 14.9925 13.2436 14.9862 13.0041C14.9862 12.9789 14.9673 12.9222 14.9169 12.96C14.7656 12.9537 14.6144 12.9537 14.4695 12.9474C13.7324 12.9411 13.0015 12.9285 12.2644 12.9222C11.9052 12.9159 11.5398 12.9222 11.1807 12.9159C10.3175 12.9033 9.44806 12.897 8.5849 12.8844C8.50299 12.8844 8.47779 12.9096 8.47779 12.9915C8.47779 13.3003 8.47149 13.6027 8.46519 13.9114C8.45889 14.7053 8.45889 15.4928 8.43999 16.2867C8.42738 16.7151 8.43368 17.1435 8.42108 17.572C8.40848 17.9122 8.41478 18.2461 8.40848 18.5863C8.39588 18.9518 8.40218 19.3235 8.40218 19.6889C8.33288 19.6826 8.26357 19.6763 8.19427 19.67C8.19427 19.6322 8.18797 19.6007 8.18797 19.5629C8.20057 19.0085 8.20687 18.4603 8.21947 17.9059C8.23207 17.2758 8.22577 16.6458 8.23837 16.0158C8.25727 15.0203 8.25097 14.0185 8.28247 13.023C8.28877 12.8844 8.28247 12.8844 8.13756 12.8781C7.2681 12.8655 6.39864 12.8781 5.52918 12.8466C5.00624 12.8277 4.4896 12.8403 3.96666 12.8277C3.31142 12.8088 2.65617 12.8277 2.00092 12.7962C1.97572 12.7269 2.00722 12.6639 2.01982 12.6009C2.13953 12.6009 2.25924 12.6009 2.37895 12.6009C3.24841 12.6135 4.12418 12.6135 4.99364 12.6324C5.42207 12.645 5.8505 12.6387 6.27893 12.6387C6.90898 12.645 7.53902 12.645 8.16907 12.6576C8.25727 12.6576 8.28247 12.6324 8.28247 12.5442C8.28247 12.0843 8.27617 11.6243 8.28877 11.1644C8.30768 10.5974 8.28878 10.0303 8.30768 9.45698C8.32658 8.99705 8.32028 8.53711 8.32658 8.07718C8.33288 7.58575 8.33288 7.09431 8.34548 6.60288C8.37068 5.46249 8.35808 4.31581 8.38958 3.17543C8.40218 2.7596 8.40218 2.33747 8.40218 1.92164C8.38958 1.87754 8.38958 1.83343 8.39588 1.78933C8.39588 1.72632 8.43369 1.68852 8.47779 1.65072C8.52819 1.73892 8.629 1.78933 8.6101 1.90274C8.6038 2.29967 8.6038 2.69659 8.5912 3.09352C8.5786 3.52825 8.5786 3.96929 8.5723 4.40402C8.56599 5.17267 8.57229 5.94133 8.54709 6.71628C8.53449 7.18882 8.54709 7.66135 8.52819 8.13389C8.50929 8.60012 8.52819 9.06635 8.50929 9.53259C8.49039 10.0114 8.50299 10.4903 8.49669 10.9691C8.48409 11.492 8.49039 12.015 8.48409 12.5442C8.48409 12.6765 8.49039 12.6828 8.6227 12.6828C9.22124 12.6954 9.81979 12.6828 10.4183 12.7017C11.124 12.7206 11.8233 12.708 12.529 12.7206C13.2787 12.7395 14.0222 12.7332 14.7719 12.7458C14.8664 12.7458 14.9106 12.7206 14.9043 12.6261C14.9295 12.393 14.8412 12.1788 14.7908 11.9646C14.6963 11.5613 14.5577 11.177 14.4065 10.7927C14.2868 10.484 14.1482 10.1815 14.0033 9.88541C13.9025 9.6712 13.7891 9.46328 13.6694 9.25537C13.4992 8.97185 13.3417 8.67572 13.1527 8.40481C13.0645 8.2788 12.9637 8.16539 12.8818 8.03938C12.7558 7.83776 12.6109 7.65505 12.4786 7.45974C12.3274 7.22662 12.1636 6.9935 12.006 6.76039C11.8863 6.59657 11.7855 6.42016 11.6595 6.25635C11.5713 6.14294 11.5146 6.01063 11.4264 5.89722C11.2941 5.72711 11.187 5.5444 11.061 5.36799C11.0484 5.36169 11.0232 5.32388 10.9791 5.32388Z" fill="#0B81CB"/>
<path d="M14.7783 21.7429C14.8161 21.7051 14.8665 21.6988 14.8917 21.6483C14.9799 21.661 15.024 21.579 15.087 21.5412C15.1941 21.4656 15.2949 21.3774 15.3894 21.2892C15.5532 21.1443 15.717 20.9994 15.8746 20.8419C16.1455 20.571 16.4164 20.2938 16.6306 19.9724C16.6621 19.9283 16.6999 19.8842 16.7377 19.8401C16.7881 19.7834 16.7944 19.733 16.7314 19.6763C16.5361 19.5125 16.3471 19.3487 16.1518 19.1849C15.9628 19.0274 15.7863 18.8509 15.5847 18.706C15.3705 18.5422 15.1815 18.3532 14.9673 18.1894C14.8476 18.1012 14.7342 18.0004 14.6208 17.8996C14.5704 17.8555 14.5893 17.7988 14.6271 17.7484C14.6712 17.698 14.6964 17.7106 14.7405 17.7547C14.8539 17.8555 14.9673 17.95 15.087 18.0508C15.3012 18.2398 15.5154 18.4288 15.7296 18.6178C15.9376 18.7942 16.1518 18.9644 16.3534 19.1408C16.5991 19.355 16.8448 19.5755 17.0905 19.7897C17.1346 19.8275 17.122 19.859 17.0968 19.8968C16.9204 20.1362 16.7125 20.3505 16.5235 20.5773C16.4164 20.7033 16.303 20.8167 16.1959 20.9364C16.0825 21.0624 15.9439 21.1758 15.8241 21.2955C15.6036 21.5097 15.3642 21.6988 15.1185 21.8878C14.7342 22.1839 14.3309 22.4674 13.9088 22.7005C13.5875 22.8769 13.2662 23.0407 12.9322 23.192C12.6046 23.3369 12.2707 23.4566 11.9368 23.5763C11.6722 23.6708 11.3949 23.7149 11.124 23.7905C10.8531 23.8598 10.5822 23.8724 10.3113 23.9291C10.1852 23.9543 10.0529 23.9606 9.92062 23.9732C9.5741 24.0047 9.23388 24.0047 8.88735 23.9921C8.67944 23.9858 8.47782 23.9984 8.26991 23.9921C7.97378 23.9795 7.68396 23.9732 7.38784 23.948C7.21143 23.9354 7.02872 23.9228 6.8523 23.8913C6.66959 23.8661 6.48058 23.8535 6.29786 23.8094C5.96394 23.7338 5.61742 23.6834 5.28979 23.5889C4.99367 23.5007 4.69755 23.4314 4.40773 23.3117C4.27542 23.2613 4.13681 23.2109 4.0045 23.1605C3.86589 23.1101 3.72728 23.0218 3.58867 22.9588C3.18544 22.7698 2.80111 22.5367 2.43569 22.291C2.10806 22.0705 1.81194 21.8185 1.52212 21.5601C1.2512 21.3207 1.01178 21.0498 0.778667 20.7852C0.551851 20.5269 0.362837 20.2496 0.154922 19.9787C0.104518 19.9094 0.0667157 19.8275 0.0226125 19.7456C-0.0151902 19.6826 -0.00888973 19.6322 0.0667157 19.5881C0.142321 19.544 0.211626 19.4747 0.280931 19.418C0.488846 19.2416 0.696761 19.0652 0.904676 18.8888C1.1819 18.6556 1.45282 18.4162 1.73004 18.1768C1.87495 18.0508 2.02616 17.9311 2.17737 17.8114C2.20887 17.7862 2.22147 17.7232 2.27818 17.7547C2.32858 17.7862 2.36008 17.8429 2.39158 17.8933C2.41679 17.9311 2.37268 17.95 2.35378 17.9689C2.20887 18.0886 2.05766 18.2083 1.90645 18.328C1.65443 18.5359 1.40241 18.7438 1.14409 18.9455C0.917277 19.1282 0.690461 19.3046 0.463644 19.481C0.451043 19.4936 0.432142 19.5062 0.419541 19.5188C0.280931 19.6448 0.274631 19.6511 0.381738 19.796C0.558151 20.0291 0.734564 20.2686 0.936178 20.4828C1.14409 20.7033 1.35201 20.9238 1.57882 21.1254C1.78044 21.3144 1.99465 21.4908 2.21517 21.661C2.42939 21.8311 2.6562 21.9886 2.88932 22.1398C3.09093 22.2721 3.30515 22.3855 3.51936 22.5052C3.84069 22.6753 4.17461 22.8202 4.50224 22.9651C4.71015 23.0534 4.93067 23.1227 5.14488 23.192C5.4095 23.2739 5.67412 23.3558 5.94504 23.4125C6.27266 23.4818 6.60029 23.5385 6.92791 23.5889C7.40044 23.6582 7.87928 23.6834 8.35181 23.6834C8.56603 23.6834 8.78024 23.7086 9.00076 23.6897C9.25908 23.6708 9.5237 23.6834 9.78202 23.6582C9.96473 23.6393 10.1474 23.6267 10.3302 23.5889C10.557 23.5448 10.7901 23.5196 11.0106 23.4692C11.2437 23.4125 11.4705 23.3558 11.7037 23.2928C11.8864 23.2424 12.0565 23.1668 12.2455 23.1227C12.3526 23.0975 12.4534 23.0471 12.5605 23.0029C13.0267 22.8202 13.4741 22.5934 13.9088 22.3414C14.1797 22.1839 14.4507 22.0138 14.7027 21.8185C14.7342 21.7996 14.772 21.787 14.7783 21.7429Z" fill="#0B81CB"/>
<path d="M4.80462 22.9652C4.68491 22.7573 4.54 22.5808 4.33839 22.4485C4.23128 22.3792 4.26908 22.2658 4.26278 22.1461C4.35729 22.2154 4.43289 22.2784 4.5274 22.3099C4.63451 22.3477 4.72902 22.3225 4.81092 22.2469C4.84872 22.2091 4.84242 22.1713 4.81092 22.1398C4.77942 22.1083 4.74792 22.1083 4.71641 22.1398C4.66601 22.1902 4.61561 22.2406 4.5274 22.228C4.4644 22.2217 4.42659 22.1839 4.40769 22.1335C4.38879 22.0831 4.42659 22.0453 4.4644 22.0138C4.4896 21.9886 4.5274 21.976 4.5652 21.9634C4.68491 21.9382 4.68491 21.9382 4.64081 21.8122C4.5715 21.8248 4.5337 21.9004 4.4581 21.9004C4.41399 21.9004 4.37619 21.9004 4.35099 21.8626C4.31949 21.8185 4.28798 21.7681 4.31319 21.7114C4.32579 21.6736 4.35729 21.6484 4.38879 21.6988C4.4455 21.7807 4.4959 21.724 4.54 21.6925C4.5715 21.6673 4.5715 21.6295 4.5274 21.6106C4.42659 21.5665 4.32579 21.5161 4.21868 21.4783C4.15567 21.4531 4.13677 21.5224 4.11787 21.5602C4.02337 21.7492 3.93516 21.9382 3.84065 22.1272C3.80915 22.1839 3.78395 22.2469 3.75245 22.3099C3.68944 22.2343 3.69574 22.165 3.73984 22.0831C3.82175 21.9319 3.89106 21.7807 3.96036 21.6295C4.02337 21.4972 4.01076 21.4027 3.92886 21.3459C3.87215 21.3081 3.84065 21.3144 3.79655 21.3775C3.67054 21.5539 3.58233 21.7492 3.48153 21.9445C3.46893 21.976 3.45632 22.0138 3.41222 22.0264C3.37442 22.0075 3.35552 21.9823 3.35552 21.9319C3.36182 21.8311 3.32401 21.7555 3.24841 21.6988C3.1791 21.6421 3.22951 21.5791 3.22951 21.5224C3.22951 21.4657 3.27991 21.4846 3.31771 21.472C3.36182 21.4594 3.41222 21.4657 3.45632 21.4279C3.43112 21.3585 3.41222 21.2955 3.38702 21.2262C3.27991 21.2451 3.1602 21.3649 3.0909 21.1947C3.0657 21.138 3.04679 21.075 3.1287 21.0372C3.22321 21.138 3.27361 21.138 3.35552 21.0309C3.26101 20.949 3.1413 20.8923 3.04049 20.8293C3.00269 20.8041 2.97749 20.8482 2.95859 20.8734C2.83888 21.0246 2.71917 21.1821 2.59946 21.3396C2.54906 21.409 2.49866 21.472 2.43565 21.5476C2.41045 21.4972 2.42935 21.4594 2.44825 21.4216C2.51126 21.3207 2.54906 21.2073 2.57426 21.0939C2.59316 21.012 2.58686 20.9364 2.53016 20.8671C2.51126 20.8608 2.49866 20.8734 2.49235 20.886C2.45455 20.9553 2.40415 20.9994 2.32224 20.9679C2.24664 20.9427 2.20253 20.8986 2.19623 20.8167C2.18993 20.7285 2.23404 20.6718 2.30964 20.634C2.44825 20.5647 2.59946 20.6277 2.65617 20.7852C2.67507 20.8419 2.68767 20.9049 2.70027 20.9868C2.78848 20.9112 2.83888 20.8293 2.89558 20.7474C2.92079 20.7159 2.88928 20.6844 2.86408 20.6655C2.73177 20.5773 2.62466 20.4702 2.48605 20.3946C2.37895 20.3316 2.30334 20.2182 2.21514 20.13C2.17103 20.0859 2.13953 20.0355 2.07022 20.0292C2.03242 20.0607 2.04502 20.0922 2.06392 20.1237C2.09543 20.193 2.15213 20.2434 2.22144 20.2749C2.27184 20.3001 2.27814 20.3316 2.27814 20.382C2.28444 20.4891 2.24664 20.5332 2.13323 20.5458C1.96942 20.5647 1.86231 20.6781 1.7741 20.8104C1.7552 20.8419 1.7363 20.8797 1.7111 20.9238C1.64179 20.886 1.64179 20.8356 1.6733 20.7852C1.7678 20.6403 1.85601 20.4891 2.01982 20.4135C2.07652 20.3883 2.07022 20.3505 2.03872 20.319C1.96942 20.2371 1.92531 20.1426 1.94422 20.0292C1.95052 19.9851 1.92531 19.9725 1.88751 19.9725C1.85601 19.9725 1.83081 19.9787 1.80561 19.9851C1.7678 19.9977 1.7174 20.0103 1.7174 20.0607C1.7174 20.1048 1.7615 20.1237 1.793 20.1363C1.84341 20.1615 1.89381 20.1741 1.94422 20.1993C1.92531 20.2749 1.90641 20.3442 1.88121 20.4135C1.84971 20.5017 1.7552 20.5521 1.64809 20.5458C1.53469 20.5395 1.43388 20.4765 1.40238 20.3694C1.33307 20.1615 1.41498 19.9914 1.54099 19.8338C1.57879 19.7834 1.63549 19.7456 1.6859 19.6952C1.7237 19.7393 1.7048 19.7708 1.6733 19.8023C1.61029 19.8779 1.55359 19.9598 1.52208 20.0544C1.47798 20.1993 1.52839 20.3253 1.6607 20.3946C1.7048 20.4198 1.7615 20.4387 1.7867 20.3883C1.82451 20.3316 1.7678 20.3064 1.7237 20.2875C1.64179 20.2497 1.61659 20.1804 1.61659 20.0985C1.61659 20.004 1.64809 19.922 1.7426 19.8842C1.793 19.8653 1.84341 19.8464 1.89381 19.8212C1.84971 19.7015 1.66069 19.6637 1.7174 19.4684C2.09543 19.8212 2.41675 20.2119 2.82628 20.5143C3.23581 20.8167 3.68314 21.0435 4.10527 21.327C4.16198 21.2955 4.14937 21.201 4.21868 21.1632C4.22498 21.1884 4.23758 21.2136 4.23128 21.2325C4.19348 21.3459 4.26908 21.3838 4.34469 21.4153C4.69121 21.5539 5.03144 21.6988 5.39056 21.7996C5.49767 21.8311 5.62998 21.8437 5.65518 22.0012C5.56068 21.9697 5.46617 21.9634 5.42207 22.0768C5.39686 22.1272 5.39056 22.1839 5.37796 22.2406C5.36536 22.3288 5.35276 22.4233 5.34016 22.5178C5.30866 22.7068 5.10704 22.7951 4.98103 22.7762C4.95583 22.7699 4.93063 22.7636 4.93063 22.732C4.93063 22.7068 4.94953 22.6942 4.97473 22.6879C5.13855 22.6438 5.18895 22.5745 5.19525 22.4044C5.19525 22.354 5.20155 22.3099 5.20785 22.2595C5.22045 22.165 5.25195 22.0831 5.32126 22.0138C5.34016 21.9949 5.37796 21.976 5.36536 21.9382C5.35276 21.9004 5.31496 21.9067 5.28976 21.8941C5.16375 21.85 5.06924 21.8374 5.00624 21.9949C4.98103 22.0642 4.92433 22.102 4.94323 22.1965C4.97473 22.3351 4.88653 22.4359 4.74162 22.4737C4.63451 22.4989 4.64081 22.5115 4.69751 22.606C4.77942 22.732 4.89283 22.8518 4.88023 23.0219C4.87393 23.0219 4.86763 23.0219 4.86133 23.0219C4.83612 22.9841 4.83612 22.9652 4.80462 22.9652ZM4.76052 21.7051C4.72902 21.8185 4.78572 21.9067 4.89283 21.8941C4.92433 21.8878 4.94953 21.8815 4.95583 21.8437C4.96213 21.8122 4.96213 21.7807 4.92433 21.7618C4.87393 21.7366 4.82352 21.7114 4.76052 21.7051ZM3.52563 21.1317C3.48783 21.2199 3.51933 21.2829 3.59493 21.327C3.63904 21.3586 3.67684 21.3333 3.70204 21.3018C3.72724 21.2703 3.72724 21.2262 3.69574 21.2073C3.64534 21.1821 3.60123 21.1317 3.52563 21.1317ZM3.49413 21.5917C3.45002 21.5791 3.40592 21.5728 3.38702 21.6106C3.36182 21.6547 3.40592 21.6925 3.42482 21.7303C3.48153 21.6988 3.50673 21.661 3.49413 21.5917Z" fill="black"/>
<path d="M4.84249 23.0092C4.82989 23.0155 4.82359 23.0218 4.81099 23.0281C4.81099 23.0218 4.81099 23.0218 4.80469 23.0155C4.81729 23.0155 4.82989 23.0155 4.84249 23.0092Z" fill="black"/>
<path d="M7.11061 12.0528C6.54987 12.0654 6.00173 12.0339 5.43469 12.0276C5.4725 11.9709 5.5103 11.9835 5.5418 11.9835C5.68671 11.9835 5.83792 11.9835 5.98283 11.9835C6.06474 11.9835 6.08994 11.952 6.08994 11.8763C6.08994 11.0195 6.09624 10.1563 6.09624 9.29946C6.09624 9.15455 6.09624 9.00334 6.09624 8.85843C6.09624 8.80803 6.08994 8.77022 6.03324 8.76392C5.99543 8.75762 5.98913 8.73242 5.98913 8.70092C5.99543 8.66942 5.97653 8.61901 6.02063 8.61271C6.09624 8.59381 6.08994 8.53711 6.09624 8.4804C6.09624 8.4111 6.08364 8.34179 6.10884 8.25989C6.21595 8.29769 6.31676 8.33549 6.43016 8.34809C6.44907 8.4111 6.43646 8.4741 6.44276 8.53711C6.44276 8.56231 6.43646 8.60011 6.48057 8.60641C6.53097 8.60641 6.51837 8.56231 6.52467 8.53711C6.52467 8.4804 6.52467 8.4237 6.52467 8.36069C6.65068 8.34179 6.77669 8.31659 6.8901 8.26619C6.9279 8.30399 6.9153 8.34809 6.9153 8.3922C6.9153 9.53888 6.9153 10.6856 6.909 11.8322C6.909 11.9835 6.909 11.9835 7.06651 12.0087C7.07911 12.0024 7.09171 12.0087 7.11061 12.0528ZM6.44907 11.9835C6.53097 11.9898 6.51207 11.9268 6.51207 11.8889C6.51207 11.4164 6.51207 10.9502 6.51207 10.4776C6.51207 9.94841 6.51207 9.42547 6.51207 8.89623C6.51207 8.85843 6.53097 8.80173 6.44907 8.78283C6.44907 9.8539 6.44907 10.9187 6.44907 11.9835Z" fill="black"/>
<path d="M6.51836 6.81079C6.81448 6.81079 7.1043 6.81709 7.40042 6.81079C7.49493 6.81079 7.53273 6.85489 7.55163 6.9305C7.60203 7.13841 7.57683 7.33373 7.51383 7.53534C7.40672 7.83146 7.21141 8.05198 6.92159 8.16539C6.74517 8.23469 6.56246 8.24729 6.37345 8.22209C6.08993 8.18429 5.83161 8.07088 5.66149 7.83146C5.45988 7.55424 5.39058 7.24552 5.47878 6.9116C5.49768 6.83599 5.54809 6.81079 5.62369 6.81079C5.91981 6.81709 6.21593 6.81079 6.51836 6.81079Z" fill="black"/>
<path d="M10.5444 9.77201C10.5507 9.89172 10.5444 10.0114 10.5255 10.1311C10.5129 10.087 10.5066 10.0492 10.494 10.0051C10.4625 9.86022 10.4184 9.82871 10.2735 9.86022C10.2105 9.87282 10.1979 9.92952 10.1916 9.98623C10.1853 10.0618 10.2105 10.1374 10.1538 10.2256C10.1286 10.1311 10.1412 10.0555 10.1412 9.97993C10.1412 9.89802 10.1223 9.84762 10.0278 9.84762C9.95845 9.84762 9.94585 9.80351 9.98365 9.75311C10.0152 9.70901 10.0215 9.6649 10.0215 9.6208C9.99626 9.37508 10.1412 9.23017 10.3428 9.12306C10.3743 9.21127 10.4499 9.19237 10.5129 9.18607C10.7208 9.16087 10.7523 9.22387 10.7208 8.96555C10.7082 8.87104 10.7145 8.77654 10.7082 8.67573C10.7019 8.60643 10.7334 8.58752 10.7964 8.58752C10.872 8.59382 10.9476 8.58752 11.0232 8.58752C11.0862 8.58752 11.1177 8.56232 11.1177 8.49932C11.1177 8.41111 11.1366 8.32291 11.0169 8.2725C10.9413 8.241 10.9224 8.15279 10.8909 8.07719C10.8783 8.04569 10.8909 8.02678 10.9161 8.00158C11.0106 7.92598 11.0925 7.84407 11.187 7.78107C11.4139 7.62985 11.6659 7.73696 11.7604 7.94488C11.7793 7.98268 11.7793 8.02048 11.7415 8.05199C11.6911 8.09609 11.6722 8.1843 11.6155 8.1969C11.5399 8.2095 11.5462 8.10239 11.4958 8.06459C11.4517 8.03308 11.4139 7.98268 11.3572 7.97008C11.3257 8.00158 11.332 8.03938 11.332 8.07089C11.332 8.12759 11.3257 8.1843 11.2815 8.2284C11.2437 8.2599 11.2437 8.53712 11.2689 8.58122C11.2815 8.60012 11.2941 8.60013 11.313 8.60643C11.4139 8.61903 11.4895 8.56862 11.5336 8.48042C11.6092 8.33551 11.6848 8.1906 11.8171 8.07719C11.8801 8.02048 11.9494 8.00788 12.0313 8.04569C12.0943 8.07719 12.0943 8.14019 12.0817 8.1969C12.0691 8.2725 12.0187 8.3103 11.9368 8.32921C11.7352 8.37331 11.647 8.48672 11.6281 8.70093C11.6218 8.75134 11.6281 8.80174 11.5525 8.80804C11.4958 8.81434 11.5084 8.87735 11.5084 8.92145C11.5084 9.22387 11.5084 9.51999 11.5084 9.82241C11.5084 9.87912 11.521 9.94842 11.4391 9.97362C11.4139 9.97992 11.4139 10.0177 11.4139 10.0429C11.4076 10.2886 11.4076 10.5281 11.4013 10.7738C11.395 10.8494 11.4706 10.8494 11.5147 10.9187C11.2689 10.9187 11.0484 10.9187 10.8216 10.9187C10.8216 10.8557 10.7838 10.8431 10.7208 10.8431C10.4688 10.8368 10.2231 10.8305 9.97105 10.8179C9.89545 10.8179 9.84504 10.8368 9.80724 10.9061C9.64343 11.1959 9.47332 11.4794 9.31581 11.763C9.2654 11.8512 9.215 11.9016 9.10789 11.8827C9.05749 11.8764 9.00078 11.8953 8.95038 11.8764C8.91258 11.7125 8.96928 11.5802 9.05749 11.4479C9.2276 11.1896 9.38511 10.925 9.54892 10.6667C9.59303 10.5911 9.64973 10.5533 9.75054 10.5596C10.0656 10.5722 10.3806 10.5659 10.7019 10.5659C10.7775 10.5659 10.8153 10.5785 10.809 10.6667C10.8027 10.6982 10.8153 10.736 10.809 10.7738C10.809 10.8179 10.8153 10.8557 10.8657 10.8557C10.9224 10.8557 10.9161 10.8116 10.9161 10.7675C10.8972 10.5659 10.872 10.3706 10.8531 10.1689C10.8468 10.1311 10.8468 10.0933 10.8405 10.0555C10.8342 10.0303 10.8342 9.99253 10.8027 9.97993C10.7649 9.96732 10.7145 9.96732 10.7271 9.91062C10.746 9.82241 10.683 9.72161 10.7649 9.6397C10.872 9.53889 10.8405 9.40658 10.8342 9.28057C10.8342 9.25537 10.8027 9.23647 10.7775 9.24277C10.7523 9.24907 10.746 9.26797 10.746 9.29317C10.7523 9.32468 10.7523 9.34988 10.7523 9.38138C10.746 9.55779 10.7397 9.5641 10.5633 9.5704C10.5003 9.5704 10.431 9.583 10.4184 9.6649C10.4121 9.72161 10.431 9.74681 10.5444 9.77201ZM11.187 8.03938C11.1744 8.03938 11.1618 8.04569 11.1618 8.05829C11.1618 8.07089 11.1744 8.07719 11.1807 8.08349C11.1933 8.08979 11.2059 8.08349 11.2059 8.07089C11.2185 8.04569 11.1996 8.04569 11.187 8.03938Z" fill="black"/>
<path d="M12.9008 11.7062C12.7937 11.5235 12.7118 11.3534 12.611 11.1959C12.5354 11.0825 12.4724 10.9628 12.4031 10.8431C12.3527 10.7549 12.2896 10.7171 12.1888 10.7171C11.9998 10.7234 11.8045 10.7171 11.6155 10.7171C11.5588 10.7171 11.521 10.7108 11.5273 10.6415C11.5336 10.5848 11.5399 10.547 11.6155 10.547C11.8549 10.547 12.088 10.547 12.3275 10.547C12.3779 10.547 12.4094 10.5659 12.4409 10.61C12.5984 10.8179 12.7559 11.0195 12.9197 11.2211C13.0016 11.3219 13.0835 11.429 13.1717 11.5235C13.2725 11.6306 13.304 11.7567 13.2977 11.9016C13.2977 12.0591 13.2977 12.0654 13.1339 12.0654C12.1762 12.0654 11.2186 12.0591 10.2546 12.078C10.053 12.0843 9.84507 12.078 9.63716 12.078C9.62456 11.9898 9.63086 11.9016 9.63716 11.8008C10.7208 11.7504 11.7982 11.763 12.9008 11.7062Z" fill="black"/>
<path d="M12.7936 9.7972C12.7936 9.8917 12.7999 9.95471 12.781 10.024C12.7369 10.1626 12.6235 10.213 12.4975 10.15C12.4219 10.1185 12.4156 10.0681 12.4597 10.0051C12.5668 9.835 12.5605 9.70899 12.4345 9.55148C12.3778 9.48217 12.3463 9.40657 12.3085 9.33096C12.2203 9.16085 12.0627 9.04744 11.9745 8.88363C11.9115 8.77022 11.8863 8.63791 11.8548 8.5182C11.8359 8.4363 11.9178 8.3985 11.9682 8.35439C12.006 8.32289 12.069 8.33549 12.1131 8.35439C12.1384 8.36069 12.1383 8.3922 12.1383 8.4111C12.1257 8.58751 12.214 8.73872 12.2833 8.88993C12.3715 9.07895 12.4849 9.24906 12.6613 9.36877C12.6739 9.37507 12.6928 9.38767 12.6928 9.40657C12.7054 9.53888 12.8377 9.65859 12.7936 9.7972Z" fill="black"/>
<path d="M10.6326 11.1959C10.7145 11.1518 10.8027 11.1392 10.8909 11.114C10.9476 11.0951 11.0043 11.0888 11.0232 11.0195C11.0295 10.988 11.0674 10.9943 11.0863 10.9943C11.1493 10.9943 11.2123 10.9943 11.2753 11.0006C11.2879 11.0006 11.3194 11.0006 11.3194 11.0069C11.3635 11.1329 11.4895 11.1014 11.5777 11.1518C11.6155 11.1707 11.6344 11.1959 11.6344 11.24C11.6533 11.4605 11.6155 11.5172 11.3761 11.5802C11.1871 11.6306 10.9917 11.6306 10.8153 11.555C10.6389 11.4857 10.6074 11.4479 10.6326 11.1959ZM11.0106 11.3345C11.0106 11.2778 11.0106 11.2337 11.0106 11.1959C11.0106 11.1581 10.9854 11.1329 10.9539 11.1518C10.9098 11.1707 10.8657 11.1833 10.8279 11.2148C10.746 11.2967 10.7586 11.3408 10.872 11.3786C11.08 11.4479 11.2753 11.4101 11.4643 11.3345C11.521 11.3093 11.5273 11.2652 11.4832 11.2337C11.4517 11.2085 11.4139 11.1644 11.3446 11.1896C11.3446 11.2148 11.3446 11.2463 11.3446 11.2778C11.3446 11.3093 11.332 11.3345 11.2942 11.3345C11.206 11.3345 11.1178 11.3345 11.0106 11.3345Z" fill="black"/>
<path d="M12.8755 10.9439C12.9826 10.9439 13.096 10.9439 13.2031 10.9439C13.2157 10.9439 13.2346 10.9565 13.2472 10.9628C13.3544 11.0762 13.4615 11.1896 13.5623 11.303C13.6001 11.3471 13.5812 11.4101 13.5749 11.4794C13.4552 11.4794 13.3417 11.4794 13.2283 11.4794C13.2157 11.4794 13.1968 11.4794 13.1842 11.4668C13.0771 11.303 12.97 11.1329 12.8629 10.9691C12.8629 10.9628 12.8692 10.9565 12.8755 10.9439Z" fill="black"/>
<path d="M10.3302 9.94211C10.4058 10.0681 10.4373 10.1878 10.4625 10.3075C10.4184 10.3264 10.3806 10.3327 10.3365 10.3138C10.3176 10.2004 10.3239 10.0807 10.3302 9.94211Z" fill="black"/>
<path d="M4.13685 15.9654C4.21876 15.8961 4.26916 15.9024 4.33847 15.9654C4.40147 16.0284 4.50228 16.0473 4.59678 16.041C4.23136 15.8708 4.00454 15.5243 3.66432 15.3353C3.80923 15.1022 3.99194 15.077 4.19986 15.2597C4.27546 15.329 4.34477 15.329 4.42037 15.2912C4.51488 15.2471 4.60938 15.2219 4.71649 15.2282C4.7669 15.2345 4.8047 15.2093 4.8488 15.1841C4.96851 15.1085 5.06302 15.1211 5.15752 15.2282C5.20793 15.2912 5.25833 15.3605 5.30874 15.4235C5.33394 15.455 5.34654 15.4928 5.35284 15.5306C5.37174 15.6629 5.34024 15.6881 5.21423 15.6503C5.00631 15.5873 4.8047 15.5747 4.59678 15.6692C4.45187 15.7322 4.26286 15.6629 4.17465 15.5243C4.16205 15.4991 4.14315 15.4739 4.11795 15.4676C4.09275 15.5558 4.18095 15.6755 4.29436 15.7322C4.41407 15.7889 4.53378 15.7511 4.64089 15.7196C4.8047 15.6755 4.96221 15.6818 5.11972 15.7259H5.12602C5.32134 15.7763 5.39064 15.7574 5.42844 15.6503C5.48515 15.4865 5.42214 15.2849 5.27093 15.2219C5.10712 15.1526 5.02521 15.0455 5.00631 14.8691C4.99371 14.762 5.06302 14.7179 5.12602 14.6675C5.17013 14.636 5.23943 14.636 5.29613 14.6738C5.30874 14.6864 5.32764 14.6864 5.33394 14.6801C5.33394 14.4028 5.33394 14.1256 5.33394 13.8484C5.33394 13.7602 5.33394 13.6783 5.32764 13.5901C5.32764 13.546 5.32764 13.5145 5.38434 13.5082C5.40954 13.5271 5.40324 13.5523 5.40324 13.5775C5.40324 13.9177 5.40324 14.2642 5.40324 14.6045C5.40324 14.6612 5.37804 14.6864 5.33394 14.7116C5.40954 14.7998 5.48515 14.8754 5.57335 14.9321C5.82537 15.0896 6.03329 15.3038 6.2538 15.4928C6.279 15.518 6.31051 15.5495 6.34201 15.518C6.37981 15.4802 6.33571 15.4487 6.30421 15.4235C6.1719 15.3101 6.03329 15.1967 5.87578 15.0581C6.2034 15.0455 6.51212 15.0518 6.80824 14.951C7.09806 14.8439 7.38788 14.7557 7.69661 14.6486C7.77851 15.0266 7.86042 15.3983 7.94232 15.7763C7.5643 15.8141 7.20517 15.9087 6.83344 15.8645C6.74524 15.8519 6.66963 15.8015 6.58773 15.7637C6.56253 15.7511 6.53732 15.7259 6.49322 15.7322C6.54362 15.8393 6.63183 15.8961 6.73264 15.9276C6.86495 15.9717 6.99726 15.9906 7.13587 16.0095C7.41309 16.0347 7.69661 16.0662 7.97383 16.0977C8.03683 16.104 8.07463 16.1166 8.05573 16.1985C7.98643 16.5513 7.88562 16.9041 7.79741 17.2633C7.69661 17.2506 7.6084 17.2065 7.51389 17.175C7.38788 17.1372 7.25558 17.0868 7.12957 17.0616C6.80194 16.9923 6.46802 16.9482 6.13409 16.9356C6.11519 16.9356 6.10259 16.9356 6.08369 16.9293C5.91358 16.8726 5.74977 16.9041 5.59856 16.9923C5.48515 17.0616 5.36544 17.0742 5.23943 17.0679C5.07562 17.0553 4.90551 17.0553 4.74169 17.0553C4.63459 17.0553 4.53378 17.0931 4.43927 17.1372C4.40777 17.1498 4.38887 17.1813 4.35737 17.1498C4.32586 17.1183 4.36367 17.0931 4.38257 17.0679C4.43927 16.9923 4.50228 16.9104 4.55898 16.8348C4.52118 16.7781 4.47077 16.8033 4.42667 16.8033C4.31326 16.8096 4.20616 16.8159 4.09275 16.7781C4.04234 16.7592 3.99194 16.7466 3.96044 16.7025C3.91003 16.6269 3.86593 16.6395 3.80293 16.6836C3.71472 16.7403 3.61391 16.7592 3.51311 16.7088C3.4564 16.6836 3.4501 16.6458 3.4879 16.608C3.59501 16.4946 3.70842 16.3875 3.80293 16.2615C3.82183 16.2363 3.84703 16.2237 3.88483 16.2426C3.95414 16.2804 4.02344 16.3245 4.08645 16.3686C4.08015 16.4505 3.99824 16.4946 3.99194 16.5765C4.03604 16.608 4.07385 16.5828 4.10535 16.5576C4.21246 16.4757 4.32586 16.4442 4.46447 16.4631C4.56528 16.4757 4.66609 16.4694 4.7732 16.4694C4.811 16.4694 4.8551 16.4631 4.8677 16.4001C4.73539 16.3686 4.60308 16.3812 4.47708 16.3875C4.37627 16.3938 4.29436 16.3875 4.23136 16.2993C4.18095 16.23 4.08645 16.2489 4.02974 16.1985C3.91634 16.0788 3.82183 16.1166 3.72102 16.2174C3.67692 16.2615 3.61391 16.2867 3.55721 16.3182C3.4501 16.3749 3.35559 16.3497 3.27369 16.2615C3.23589 16.2174 3.24219 16.1796 3.27999 16.1481C3.4564 15.9969 3.62651 15.8267 3.81553 15.6881C3.92264 15.6062 3.94154 15.6062 4.01084 15.7259C4.06755 15.7889 4.13685 15.8456 4.13685 15.9654ZM3.94784 15.3605C3.87223 15.266 3.85963 15.266 3.80923 15.3101C3.85333 15.329 3.87853 15.3731 3.94784 15.3605ZM5.22053 14.9825C5.20793 14.9699 5.20793 14.9384 5.17643 14.951C5.15122 14.9573 5.13232 14.9699 5.13862 14.9951C5.14492 15.0203 5.17013 15.0266 5.18903 15.0266C5.21423 15.0266 5.22683 15.014 5.22053 14.9825ZM4.67239 16.8096C4.64719 16.7781 4.62829 16.7781 4.60938 16.8096C4.62199 16.8348 4.64089 16.8411 4.67239 16.8096ZM4.01084 16.6143C4.01084 16.608 4.00454 16.608 4.00454 16.6017L3.99824 16.608C3.99824 16.6143 4.00454 16.6143 4.00454 16.6206L4.01084 16.6143Z" fill="black"/>
<path d="M4.96219 13.5334C5.0315 13.5019 5.0882 13.5271 5.1512 13.5208C5.126 13.7098 5.0945 13.8862 5.0756 14.0689C5.0504 14.3083 4.98109 14.5478 4.99999 14.7998C5.00629 14.8943 4.92439 15.0581 4.83618 15.1022C4.88028 14.573 4.91809 14.05 4.96219 13.5334Z" fill="black"/>
<path d="M4.7164 13.5334C4.6849 13.7476 4.65339 13.9618 4.61559 14.176C4.58409 14.3524 4.53999 14.5288 4.52108 14.7116C4.50848 14.8376 4.45178 14.9573 4.45178 15.0833C4.45178 15.1211 4.42028 15.1337 4.36987 15.1148C4.38877 14.9762 4.40768 14.8376 4.42658 14.699C4.48958 14.3335 4.55259 13.9744 4.60929 13.609C4.62819 13.546 4.64079 13.5019 4.7164 13.5334Z" fill="black"/>
<path d="M4.40138 16.8978C4.28168 17.0238 4.19347 17.1813 4.00446 17.2191C3.95405 17.2254 3.91625 17.2254 3.88475 17.1939C3.85325 17.1561 3.90365 17.1246 3.90365 17.0868C3.90365 17.0805 3.91625 17.0742 3.92255 17.0679C4.01076 16.8222 4.21237 16.8789 4.40138 16.8978Z" fill="black"/>
<path d="M5.89459 14.7935C5.90089 14.8187 5.89459 14.8439 5.86939 14.8502C5.83159 14.8628 5.82528 14.8313 5.82528 14.8061C5.80638 14.699 5.78748 14.5919 5.77488 14.4848C5.74338 14.1886 5.70558 13.8988 5.65517 13.6027C5.64887 13.5775 5.63627 13.5397 5.68037 13.5334C5.72448 13.5271 5.71818 13.5712 5.72448 13.5964C5.75598 13.8169 5.78748 14.0311 5.81898 14.2516C5.83789 14.428 5.86309 14.6108 5.89459 14.7935Z" fill="black"/>
<path d="M4.77314 17.1372C4.79835 17.1435 4.86135 17.1057 4.86765 17.175C4.87395 17.238 4.82985 17.2695 4.77314 17.2821C4.69754 17.3073 4.62193 17.2884 4.54633 17.2758C4.52113 17.2695 4.49592 17.2632 4.48962 17.2317C4.48962 17.2002 4.51483 17.1876 4.53373 17.175C4.60933 17.1561 4.67864 17.1246 4.77314 17.1372Z" fill="black"/>
<path d="M3.80926 15.6188C3.74625 15.6629 3.67065 15.6881 3.62655 15.7574C3.60134 15.7952 3.56984 15.8015 3.54464 15.7448C3.52574 15.7007 3.46903 15.6629 3.48794 15.6125C3.51314 15.5558 3.58874 15.5684 3.64545 15.5684C3.70215 15.5684 3.76516 15.5621 3.80926 15.6188Z" fill="black"/>
<path d="M9.33472 14.5415C9.36622 14.447 9.39142 14.3461 9.46703 14.2768C9.62454 14.1193 9.79465 13.987 9.99626 13.8988C10.053 13.8736 10.116 13.8736 10.1727 13.8673C10.3554 13.861 10.5318 13.8421 10.7082 13.7917C10.8279 13.7602 10.9665 13.7665 11.0988 13.7665C11.3131 13.7665 11.5336 13.7287 11.7478 13.7539C11.8486 13.7665 11.9431 13.7728 12.0187 13.8547C11.9998 13.9177 11.9179 13.8673 11.8927 13.9303C11.9305 13.9618 11.9683 13.9555 12.0061 13.9429C12.0376 13.9177 11.9809 13.8925 12.0124 13.8736C12.1447 13.9051 12.1447 13.9366 12.0061 14.1256C12.0628 14.1508 12.0628 14.1508 12.34 14.05C12.3274 14.3083 12.3526 14.5667 12.3148 14.8376C12.4156 14.762 12.4282 14.6675 12.4282 14.5667C12.4345 14.4028 12.4408 14.239 12.4471 14.0752C12.4471 14.0374 12.4408 13.987 12.5101 13.987C12.5732 13.9933 12.5668 14.0374 12.5668 14.0752C12.5668 14.573 12.5668 15.0644 12.5668 15.5621C12.5668 16.0347 12.5668 16.5072 12.5668 16.9797C12.5668 17.0805 12.5479 17.0931 12.4534 17.0616C12.4282 17.049 12.3967 17.049 12.3715 17.049C12.3463 17.0553 12.3211 17.049 12.2959 17.049C12.2581 16.923 12.2329 16.9104 12.0943 16.9545C12.1384 17.0364 12.2203 17.0868 12.2329 17.1813C12.2455 17.2696 12.2707 17.3641 12.2707 17.4649C12.1762 17.4649 12.0817 17.4712 11.9935 17.4649C11.9242 17.4586 11.8801 17.4838 11.8801 17.5594C11.8801 17.635 11.8486 17.6665 11.773 17.6728C11.6281 17.6917 11.4895 17.7169 11.3509 17.7421C11.2879 17.7547 11.2312 17.7358 11.1807 17.6917C11.0673 17.5846 10.935 17.5594 10.7838 17.6035C10.6389 17.6413 10.4877 17.6224 10.3365 17.6665C10.2987 17.6791 10.2609 17.6539 10.2294 17.635C10.0152 17.4523 9.78835 17.2885 9.56153 17.1183C9.49223 17.0679 9.49223 17.0175 9.53633 16.9545C9.61194 16.8474 9.63714 16.7088 9.75055 16.6269C9.76315 16.6206 9.75685 16.5891 9.76315 16.5702C9.78835 15.9528 9.78835 15.3353 9.80095 14.7242C9.80095 14.636 9.75685 14.6045 9.66234 14.6423C9.58674 14.6675 9.51743 14.7179 9.47963 14.5919C9.45443 14.5415 9.37882 14.5793 9.33472 14.5415ZM10.7712 14.4722C11.0106 14.51 11.0358 14.5478 10.9917 14.7557C10.8909 14.7557 10.7901 14.7557 10.6893 14.7557C10.6515 14.7557 10.5885 14.7305 10.5948 14.7935C10.5948 14.8565 10.6578 14.8313 10.6956 14.8313C10.7775 14.8376 10.8594 14.8376 10.9413 14.8439C10.9728 14.8439 11.0106 14.8439 11.0106 14.888C11.0043 14.9762 11.0232 15.0644 10.998 15.1589C10.8846 15.1526 10.7712 15.1463 10.6578 15.14C10.6263 15.14 10.5885 15.1463 10.5885 15.1841C10.5885 15.2282 10.62 15.2345 10.6578 15.2345C10.7523 15.2345 10.8405 15.2345 10.935 15.2345C10.9917 15.2345 11.0169 15.2534 11.0106 15.3101C11.0043 15.3983 10.998 15.4802 10.9665 15.5621C10.935 15.6629 10.935 15.7826 10.9728 15.8961C11.0043 15.9906 10.9917 16.0914 10.9854 16.1859C10.9476 16.2111 10.9098 16.1985 10.872 16.1985C10.8342 16.1985 10.8027 16.1922 10.7649 16.1922C10.7397 16.1922 10.7082 16.1859 10.7082 16.2237C10.7082 16.2615 10.7397 16.2678 10.7649 16.2678C10.8342 16.2741 10.9224 16.2363 10.9665 16.2867C11.0106 16.3371 10.9791 16.419 10.9791 16.4883C10.9791 16.5261 10.998 16.545 11.0295 16.545C11.061 16.545 11.0673 16.5135 11.0673 16.4883C11.0673 16.4316 11.0736 16.3812 11.0736 16.3245C11.0736 16.2741 11.0988 16.2552 11.1492 16.2615C11.1871 16.356 11.1492 16.4694 11.206 16.5639C11.2312 16.4064 11.2627 16.2489 11.2312 16.0914C11.1555 16.0851 11.1808 16.1544 11.1366 16.1733C11.124 16.167 11.1114 16.167 11.0988 16.1607C11.0673 16.1355 11.0547 15.9213 11.0862 15.8961C11.1114 15.8772 11.1492 15.8583 11.1618 15.9087C11.1744 15.9465 11.1871 15.9654 11.2375 15.9465C11.2186 15.8394 11.3005 15.7259 11.2186 15.6188C11.1429 15.644 11.1681 15.7007 11.1618 15.7448C11.1555 15.77 11.1681 15.8079 11.124 15.8079C11.0799 15.8079 11.0736 15.7763 11.0736 15.7448C11.0736 15.5936 11.0736 15.4424 11.0736 15.2975C11.0736 15.2282 11.1114 15.2219 11.1618 15.2471C11.1618 15.3416 11.1618 15.4361 11.1618 15.5243C11.1618 15.5495 11.1618 15.5747 11.1997 15.581C11.2249 15.5873 11.2312 15.5684 11.2375 15.5495C11.2879 15.4487 11.2375 15.2723 11.1555 15.2219C11.1618 15.203 11.1744 15.1967 11.1871 15.1967C11.206 15.1967 11.2249 15.1967 11.2249 15.1778C11.2375 15.0644 11.2438 14.9573 11.2249 14.8439C11.1618 14.8565 11.1681 14.8943 11.1681 14.9258C11.1681 14.9699 11.1618 15.0077 11.1681 15.0518C11.1681 15.1022 11.1555 15.14 11.1051 15.14C11.0484 15.14 11.0358 15.0959 11.0358 15.0455C11.0358 15.0014 11.0358 14.9573 11.0358 14.9132C11.0358 14.8628 11.0421 14.825 11.1051 14.825C11.124 14.825 11.1429 14.8187 11.1429 14.7935C11.1429 14.762 11.124 14.7557 11.0988 14.7494C11.0421 14.7431 11.0358 14.7053 11.0421 14.6612C11.0484 14.6234 11.0421 14.5919 11.0421 14.5541C11.0421 14.4974 11.0421 14.4407 11.124 14.447C11.1492 14.447 11.1555 14.4281 11.1555 14.4091C11.1555 14.3902 11.1555 14.365 11.1303 14.365C11.0547 14.365 11.0736 14.302 11.0547 14.2642C11.0421 14.2327 11.0484 14.1949 11.0106 14.176C10.935 14.2201 11.0043 14.3146 10.9413 14.3587C10.8972 14.4092 10.8153 14.3965 10.7712 14.4722ZM9.96476 16.797C10.0026 16.86 10.0719 16.8915 10.1223 16.9356C10.1538 16.9671 10.1979 17.0175 10.242 16.9923C10.2924 16.9671 10.2672 16.9041 10.2672 16.86C10.2735 16.0536 10.2735 15.2471 10.2798 14.4344C10.2798 14.3839 10.2798 14.3398 10.2735 14.2894C10.2735 14.2579 10.2546 14.239 10.2231 14.2453C10.1916 14.2453 10.1916 14.2705 10.1916 14.2957C10.1916 14.3398 10.1916 14.3839 10.1916 14.4281C10.1916 14.5541 10.1916 14.6801 10.1916 14.8124C10.0971 14.7998 10.0404 14.8439 9.98366 14.8754C10.0782 14.9951 10.0782 15.1211 10.0089 15.2471C9.99627 15.266 9.99627 15.2912 10.0089 15.2975C10.0719 15.3353 10.0404 15.392 10.0467 15.4424C10.053 15.5117 10.0152 15.5999 10.0971 15.6566C10.1223 15.6062 10.116 15.5684 10.116 15.5243C10.1097 15.3542 10.1097 15.1778 10.1034 15.0077C10.1034 14.951 10.116 14.9132 10.1916 14.9384C10.1916 15.1715 10.1916 15.4046 10.1916 15.6377C10.1916 15.6503 10.1916 15.6755 10.179 15.6818C10.1412 15.7133 10.1538 15.7322 10.1727 15.77C10.2168 15.8646 10.1853 15.9717 10.1979 16.0662C10.1664 16.0851 10.1349 16.0725 10.1223 16.0977C10.1349 16.1355 10.1979 16.1418 10.1979 16.1922C10.1979 16.4001 10.1979 16.608 10.1979 16.8222C10.1223 16.8159 10.053 16.7403 9.96476 16.797ZM10.4121 16.8159C10.494 16.7214 10.5003 16.7277 10.557 16.8285C10.5696 16.8537 10.5948 16.8789 10.6137 16.9041C10.6578 16.9671 10.7145 16.9419 10.7649 16.9104C10.8216 16.8789 10.8153 16.8348 10.7649 16.797C10.7523 16.7844 10.7397 16.7655 10.7523 16.7466C10.7964 16.6584 10.7397 16.671 10.683 16.6647C10.6137 16.6584 10.5318 16.7025 10.4814 16.6647C10.4247 16.6206 10.4499 16.5261 10.4436 16.4568C10.4436 16.4316 10.4436 16.4001 10.4058 16.4001C10.3743 16.4001 10.3617 16.4253 10.3617 16.4505C10.3617 16.5513 10.3617 16.6521 10.3617 16.7592C10.3554 16.7907 10.3806 16.8033 10.4121 16.8159ZM11.899 15.7952C11.8297 15.8646 11.8612 15.9465 11.8549 16.0158C11.8486 16.0851 11.8108 16.167 11.962 16.167C12.0565 16.167 12.1573 16.1859 12.2581 16.1985C12.3148 16.2048 12.3526 16.1922 12.3463 16.1229C12.34 16.0473 12.2896 16.0599 12.2455 16.0662C12.1825 16.0725 12.1132 16.0851 12.0502 16.0977C11.9431 16.1166 11.9305 16.1103 11.9305 15.9969C11.9305 15.9339 11.9683 15.8646 11.899 15.7952ZM11.0358 17.0931C11.061 17.0175 11.0295 16.986 10.9665 16.9797C10.9224 16.9734 10.8783 16.9797 10.8342 16.9923C10.7334 17.0364 10.6389 17.0679 10.557 16.9608C10.5192 16.9167 10.4814 16.9293 10.4751 16.986C10.4688 17.0049 10.4625 17.0301 10.4625 17.049C10.3554 17.0616 10.3554 17.0616 10.3239 17.1183C10.5696 17.1435 10.8027 17.0868 11.0358 17.0931ZM11.2816 17.0301C11.2816 17.0364 11.2879 17.049 11.2879 17.0553C11.4706 17.0616 11.6533 17.0616 11.8549 17.0427C11.7793 16.9482 11.6785 16.9293 11.6029 16.8663C11.5966 16.86 11.5714 16.8663 11.5588 16.8726C11.4643 16.923 11.3698 16.9797 11.2816 17.0301ZM11.9242 16.2615C11.8738 16.2741 11.8612 16.3056 11.8612 16.3497C11.8612 16.5009 11.8612 16.6458 11.8612 16.797C11.8612 16.8285 11.8675 16.8663 11.9053 16.8663C11.9557 16.8663 11.9494 16.8222 11.9494 16.7907C11.9494 16.6458 11.9557 16.5072 11.9557 16.3623C11.962 16.3245 11.9557 16.2867 11.9242 16.2615ZM11.124 17.4523C11.1429 17.4838 11.1681 17.5027 11.1934 17.509C11.3698 17.5468 11.5399 17.5153 11.7163 17.4775C11.7352 17.4712 11.7478 17.4523 11.7478 17.4334C11.7478 17.4082 11.7352 17.3893 11.71 17.383C11.647 17.3704 11.584 17.3389 11.521 17.3641C11.4265 17.4019 11.3194 17.3956 11.2186 17.4208C11.1871 17.4208 11.1492 17.4145 11.124 17.4523ZM11.9494 14.9132C11.9305 14.8943 11.9242 14.8502 11.8801 14.8628C11.8423 14.8754 11.8549 14.9132 11.8549 14.9384C11.8549 15.0077 11.8612 15.077 11.8612 15.1463C11.8612 15.1904 11.8801 15.2093 11.9305 15.1967C11.9431 15.1085 11.9179 15.0203 11.9431 14.9384C12.0187 14.9195 12.1069 14.9636 12.1573 14.8754C12.0439 14.8439 11.9935 14.8502 11.9494 14.9132ZM10.4058 15.5243C10.3617 15.5747 10.3428 15.8205 10.368 15.8646C10.3806 15.8835 10.3932 15.9024 10.4184 15.8961C10.4499 15.8898 10.4625 15.8709 10.4625 15.8394C10.4625 15.7826 10.4625 15.7259 10.4562 15.6692C10.4625 15.6188 10.4751 15.5621 10.4058 15.5243ZM11.6911 14.3713C11.6029 14.3461 11.5273 14.365 11.4454 14.3587C11.4202 14.3587 11.395 14.3587 11.3887 14.3965C11.3824 14.4281 11.395 14.447 11.4202 14.4596C11.5147 14.5226 11.6533 14.4785 11.6911 14.3713ZM11.8927 14.3587C11.836 14.7116 11.836 14.762 11.9053 14.8124C11.9683 14.7053 11.962 14.3965 11.8927 14.3587ZM10.4058 15.0203C10.3554 15.14 10.3743 15.2534 10.3806 15.3668C10.3806 15.3857 10.4058 15.392 10.4247 15.392C10.4499 15.392 10.4688 15.3731 10.4688 15.3479C10.4688 15.2975 10.4688 15.2471 10.4688 15.1967C10.4688 15.1463 10.4814 15.0833 10.4058 15.0203ZM11.9305 15.6566C11.9116 15.5495 11.9809 15.4424 11.8927 15.3227C11.8297 15.4361 11.8612 15.5369 11.8612 15.6377C11.8612 15.6755 11.8927 15.6692 11.9305 15.6566ZM11.7289 14.8061C11.6281 14.7431 11.5147 14.762 11.4013 14.7557C11.4013 14.7746 11.395 14.7935 11.395 14.8187C11.5021 14.8376 11.6155 14.8187 11.7289 14.8061ZM11.2123 14.8124C11.2186 14.8124 11.2186 14.8124 11.2186 14.8124C11.269 14.7872 11.332 14.5478 11.3005 14.5037C11.2879 14.4848 11.2627 14.4785 11.2438 14.4848C11.2123 14.4911 11.1871 14.5037 11.1871 14.5415C11.1934 14.636 11.1807 14.7242 11.2123 14.8124ZM11.2375 14.3272C11.3005 14.3272 11.3446 14.3209 11.3383 14.2642C11.332 14.2075 11.3068 14.176 11.2501 14.176C11.1997 14.176 11.1681 14.1949 11.1745 14.2453C11.1745 14.302 11.206 14.3272 11.2375 14.3272ZM11.1681 16.6836C11.1997 16.7655 11.2627 16.7844 11.3194 16.8159C11.3383 16.8222 11.3635 16.8222 11.3761 16.797C11.3824 16.7844 11.3824 16.7592 11.3635 16.7466C11.3068 16.7088 11.2501 16.6647 11.1681 16.6836ZM10.4751 14.3902C10.4688 14.3524 10.4751 14.3209 10.4688 14.2831C10.4688 14.2579 10.4562 14.239 10.431 14.2453C10.4121 14.2453 10.3932 14.2579 10.3932 14.2768C10.3932 14.3524 10.3932 14.4281 10.3932 14.5037C10.3932 14.5226 10.4058 14.5478 10.4373 14.5478C10.4625 14.5478 10.4751 14.5226 10.4751 14.5037C10.4751 14.4722 10.4751 14.4281 10.4751 14.3902ZM10.4688 14.7746C10.4688 14.7305 10.4688 14.6927 10.4688 14.6612C10.4688 14.6297 10.4625 14.6045 10.4247 14.6045C10.3869 14.6045 10.3932 14.636 10.3869 14.6612C10.3869 14.6927 10.3806 14.7305 10.3869 14.762C10.3932 14.8124 10.3491 14.9006 10.431 14.9006C10.5129 14.8943 10.4562 14.8124 10.4688 14.7746ZM10.4373 15.9465C10.4247 15.9465 10.4184 15.9465 10.4058 15.9465C10.368 15.9969 10.3428 16.2678 10.3743 16.3182C10.3806 16.3308 10.3995 16.3434 10.4121 16.3434C10.431 16.3434 10.4499 16.3308 10.4499 16.3119C10.4499 16.1859 10.4436 16.0662 10.4373 15.9465ZM11.6281 15.2408C11.5651 15.1715 11.5147 15.1526 11.4454 15.1463C11.4139 15.1463 11.3887 15.1589 11.3887 15.1904C11.3887 15.2219 11.4076 15.2408 11.4454 15.2408C11.4958 15.2408 11.5462 15.2408 11.6281 15.2408ZM12.0817 15.3038C12.0817 15.3164 12.088 15.3227 12.088 15.3353C12.1699 15.3353 12.2518 15.3353 12.3337 15.3353C12.3589 15.3353 12.3841 15.329 12.3841 15.2912C12.3841 15.2597 12.3589 15.2471 12.3337 15.2408C12.2392 15.2408 12.151 15.2408 12.0817 15.3038ZM10.5948 15.5243C10.62 15.6062 10.7271 15.6188 10.8153 15.5495C10.7397 15.5243 10.6704 15.5369 10.5948 15.5243ZM11.7226 16.0977C11.7415 16.0032 11.6974 15.9906 11.5084 16.0347C11.5903 16.0599 11.647 16.104 11.7226 16.0977ZM12.1825 16.6206C12.1888 16.6521 12.2014 16.6773 12.2392 16.6962C12.277 16.7151 12.3022 16.7088 12.3211 16.6899C12.34 16.6773 12.3526 16.6521 12.34 16.6269C12.3211 16.5954 12.2896 16.608 12.2644 16.608C12.2392 16.5954 12.2077 16.5954 12.1825 16.6206ZM10.4184 14.113C10.4625 14.1697 10.5129 14.1823 10.5696 14.1508C10.5948 14.1382 10.6011 14.0878 10.5759 14.0752C10.5192 14.0437 10.4688 14.0689 10.4184 14.113ZM12.3022 14.3461C12.214 14.302 12.1762 14.3902 12.1195 14.4218C12.1006 14.4344 12.1195 14.4659 12.151 14.4722C12.2455 14.4911 12.277 14.4659 12.3022 14.3461ZM11.6344 14.1004C11.6344 14.0563 11.5903 14.0374 11.5588 14.0185C11.5399 14.0059 11.521 14.0311 11.521 14.0563C11.521 14.1067 11.5525 14.1256 11.5966 14.1382C11.6218 14.1445 11.6344 14.1319 11.6344 14.1004ZM11.0106 13.924C10.9287 13.8862 10.8846 13.9681 10.8216 13.9681C10.8846 13.9618 10.9602 14.0248 11.0106 13.924ZM11.7667 15.6503C11.7037 15.6125 11.6344 15.6062 11.5462 15.6566C11.6344 15.6881 11.6974 15.6818 11.7667 15.6503ZM11.4643 15.9654C11.4643 15.9339 11.4517 15.9087 11.4139 15.9087C11.3887 15.9087 11.3572 15.9213 11.3635 15.9528C11.3698 15.9843 11.3824 16.0158 11.4202 16.0158C11.458 16.0158 11.4643 15.9906 11.4643 15.9654ZM9.98996 14.5478C10.0404 14.573 10.0845 14.5856 10.1223 14.5352C10.1349 14.5163 10.1349 14.4911 10.1034 14.4848C10.053 14.4785 10.0026 14.4659 9.98996 14.5478ZM11.9116 14.176C11.8801 14.239 11.8675 14.2894 11.9116 14.3461C11.9746 14.2831 11.9368 14.239 11.9116 14.176ZM12.3652 15.7259C12.3589 15.707 12.3463 15.6818 12.3211 15.6881C12.2959 15.6944 12.2833 15.7133 12.2833 15.7385C12.2896 15.7574 12.3085 15.77 12.3274 15.77C12.3526 15.77 12.3652 15.7511 12.3652 15.7259ZM10.4121 16.9482C10.4247 16.9482 10.4373 16.9356 10.431 16.9041C10.431 16.8852 10.4247 16.8663 10.3995 16.8663C10.3743 16.8663 10.3554 16.8789 10.3554 16.9041C10.3554 16.9356 10.3743 16.9419 10.4121 16.9482ZM11.4643 15.5747C11.4265 15.5306 11.4076 15.5432 11.3824 15.581C11.4139 15.6062 11.4391 15.5999 11.4643 15.5747Z" fill="black"/>
<path d="M9.76936 17.7673C9.75046 17.7358 9.71265 17.7484 9.69375 17.7232C9.70635 17.6476 9.76306 17.6035 9.82606 17.6161C9.94577 17.6413 10.1033 17.5531 10.1978 17.7106C10.1033 17.7862 10.1222 17.8555 10.2482 17.9248C10.2797 17.8996 10.2671 17.8681 10.2671 17.8366C10.2734 17.7925 10.2923 17.761 10.3301 17.7358C10.3553 17.7169 10.3805 17.7043 10.412 17.7295C10.4372 17.7484 10.4246 17.7736 10.412 17.7988C10.3805 17.8492 10.4057 17.9059 10.3868 17.9563C10.3679 18.0256 10.3427 18.0949 10.2671 18.139C10.2041 18.1768 10.1096 18.2209 10.1978 18.3343C10.0277 18.3343 9.87016 18.3343 9.71895 18.3343C9.70005 18.3343 9.67485 18.3217 9.68115 18.3028C9.69375 18.2461 9.64965 18.2083 9.63075 18.1642C9.56144 18.0319 9.56774 17.9815 9.69375 17.8744C9.73155 17.8429 9.76306 17.8114 9.76936 17.7673Z" fill="black"/>
<path d="M2.82007 16.7718C2.82637 16.7718 2.82637 16.7655 2.83267 16.7655C2.83267 16.7718 2.82637 16.7718 2.82637 16.7781C2.82637 16.7781 2.82637 16.7718 2.82007 16.7718Z" fill="#0B81CB"/>
<path d="M8.86209 23.3747C8.80538 23.3306 8.74868 23.2865 8.75498 23.1983C8.76128 22.984 8.76128 22.7698 8.76758 22.5556C8.76758 22.4737 8.76128 22.4359 8.66677 22.4485C8.59747 22.4548 8.52186 22.4359 8.44626 22.4296C8.39586 22.4296 8.34545 22.417 8.28875 22.4422C8.42106 22.5241 8.52817 22.6186 8.55967 22.7761C8.57227 22.8517 8.55967 22.9147 8.51556 22.9714C8.47146 23.0218 8.42736 23.0597 8.35805 23.0218C8.30765 22.9966 8.26355 22.9588 8.26985 22.8958C8.27615 22.8265 8.33285 22.8013 8.39586 22.7887C8.40846 22.7887 8.42736 22.7824 8.43996 22.7824C8.43366 22.6879 8.37065 22.6249 8.25094 22.6123C8.20054 22.8391 8.22574 23.0723 8.16274 23.3054C8.10603 23.2739 8.11863 23.2109 8.09343 23.1668C8.02413 23.0344 7.92332 22.9336 7.77841 22.8958C7.6839 22.8706 7.665 22.7887 7.6146 22.732C7.5894 22.7068 7.6209 22.6816 7.6461 22.669C7.79101 22.5745 7.94222 22.5115 8.10603 22.4548C8.08713 22.4107 8.05563 22.4044 8.01783 22.4044C7.89812 22.3981 7.78471 22.3855 7.665 22.3792C7.32478 22.3666 7.12946 22.6879 7.19247 22.9966C7.20507 23.066 7.24287 23.0723 7.28698 23.0155C7.33108 22.9651 7.37518 22.9147 7.45079 22.9651C7.50749 22.9966 7.55159 23.047 7.52009 23.1164C7.48859 23.192 7.43189 23.2424 7.34368 23.2424C7.23657 23.2361 7.12316 23.1479 7.09166 23.0344C7.03496 22.8328 7.05386 22.6375 7.17987 22.4611C7.19247 22.4485 7.19877 22.4296 7.21137 22.4107C7.26177 22.3477 7.23027 22.3288 7.16727 22.3162C7.10426 22.3036 7.04126 22.2973 6.97825 22.2973C6.90265 22.2973 6.89635 22.3603 6.89005 22.4107C6.86484 22.5619 6.84594 22.7131 6.80184 22.858C6.76404 22.9777 6.77034 23.1038 6.76404 23.2361C6.70733 23.1605 6.65693 23.0975 6.62543 23.0155C6.60023 22.9336 6.51202 22.9399 6.44901 22.9273C6.36081 22.9084 6.2663 22.921 6.17179 22.8895C5.98278 22.8202 5.90718 22.5997 6.02688 22.4548C6.06469 22.48 6.05209 22.5178 6.05209 22.5493C6.05839 22.6312 6.10249 22.6879 6.1844 22.7131C6.33561 22.7572 6.49942 22.7698 6.63803 22.858C6.71993 22.7887 6.76404 22.5808 6.71363 22.4863C6.68843 22.4359 6.65063 22.4485 6.61913 22.4674C6.54982 22.5052 6.47422 22.543 6.41751 22.5934C6.32931 22.6753 6.26 22.6564 6.1907 22.5745C6.197 22.5367 6.2411 22.5304 6.26 22.5052C6.2789 22.4737 6.3041 22.4485 6.2852 22.4107C6.2726 22.3792 6.2411 22.3792 6.2096 22.3855C6.15919 22.3855 6.10879 22.3855 6.08359 22.3351C6.05839 22.2721 6.10249 22.2406 6.14029 22.2028C6.3041 22.0264 6.57502 22.0516 6.71993 22.2469C6.73884 22.2721 6.74514 22.2973 6.78924 22.3036C6.82074 22.2091 6.83334 22.1146 6.85224 22.0201C6.88375 22.0138 6.90265 22.039 6.90265 22.0516C6.92155 22.165 7.00345 22.1587 7.08536 22.1713C7.52009 22.2469 7.96112 22.2721 8.40216 22.3036C8.50296 22.3099 8.60377 22.3099 8.71088 22.3099C8.74238 22.3099 8.77388 22.3036 8.77388 22.2721C8.78018 22.228 8.74238 22.2217 8.71088 22.2154C8.59747 22.2028 8.48406 22.1965 8.37065 22.1839C8.26985 22.1713 8.18164 22.1398 8.14384 22.0264C8.13124 21.9823 8.13124 21.9445 8.15014 21.9067C8.16274 21.8752 8.17534 21.8374 8.21944 21.8563C8.25094 21.8689 8.23834 21.9004 8.22574 21.9319C8.20054 22.0012 8.25095 22.0327 8.30765 22.039C8.37695 22.0453 8.43996 22.039 8.50926 22.0453C8.57227 22.0453 8.63527 22.0453 8.69828 22.0516C8.80538 22.0642 8.87469 22.1398 8.89359 22.2406C8.89989 22.291 8.91249 22.3162 8.9692 22.3162C9.08891 22.3099 9.21491 22.291 9.30312 22.4044C9.31572 22.417 9.34722 22.4107 9.36612 22.3792C9.38503 22.3414 9.42283 22.3225 9.46063 22.2973C9.52364 22.2532 9.57404 22.2658 9.62444 22.3099C9.66225 22.3414 9.70005 22.3729 9.74415 22.4107C9.77565 22.2973 9.70005 22.2028 9.73155 22.102C9.76305 22.1083 9.80086 22.1209 9.80716 22.1461C9.83866 22.2532 9.92056 22.2343 9.99617 22.2217C10.2419 22.1776 10.4939 22.1335 10.7396 22.0894C10.8215 22.0768 10.8782 22.1146 10.9286 22.1713C10.79 22.2154 10.79 22.2154 10.8152 22.3666C10.8593 22.6123 10.8971 22.8643 10.9412 23.1164C10.8593 23.0849 10.8089 23.0534 10.7963 22.9651C10.7837 22.8328 10.7522 22.7005 10.727 22.5682C10.7207 22.5367 10.7081 22.5115 10.6892 22.4926C10.664 22.4674 10.6388 22.4485 10.5947 22.4611C10.5569 22.48 10.5506 22.5052 10.5569 22.5367C10.5632 22.5808 10.5632 22.6123 10.5128 22.6249C10.4498 22.48 10.3049 22.4548 10.2041 22.5619C10.1852 22.5871 10.1726 22.606 10.1726 22.6375C10.1726 22.669 10.1663 22.7068 10.2041 22.7194C10.2419 22.732 10.2482 22.6942 10.2608 22.669C10.2923 22.606 10.3364 22.5934 10.3994 22.6123C10.4687 22.6312 10.5002 22.6753 10.4876 22.7446C10.4813 22.8139 10.4309 22.8454 10.3742 22.8643C10.1852 22.9147 10.0088 22.7572 10.0466 22.5682C10.0781 22.3855 10.1537 22.3414 10.3364 22.3855C10.3931 22.3981 10.4309 22.4044 10.4687 22.354C10.5254 22.2658 10.601 22.3288 10.664 22.3477C10.6955 22.2469 10.6766 22.2217 10.5884 22.2343C10.349 22.2721 10.1096 22.3036 9.86386 22.3414C9.87016 22.6438 9.93317 22.9525 9.93947 23.2739C9.85756 23.2424 9.81346 23.1983 9.80716 23.1164C9.79456 22.9651 9.77565 22.8202 9.76935 22.669C9.76305 22.5808 9.71265 22.5178 9.64965 22.4674C9.61184 22.4359 9.56774 22.4359 9.52994 22.4674C9.52364 22.5178 9.57404 22.5304 9.59924 22.5556C9.65595 22.6123 9.68115 22.669 9.64335 22.7446C9.59924 22.8265 9.52994 22.8076 9.46693 22.7887C9.42913 22.7824 9.39763 22.7635 9.35982 22.795C9.30312 22.8391 9.23382 22.8643 9.17081 22.8013C9.12041 22.7572 9.12041 22.6501 9.16451 22.5808C9.18971 22.543 9.25272 22.5178 9.22121 22.4611C9.18971 22.417 9.13301 22.4296 9.0763 22.4359C8.88099 22.4485 8.88099 22.4485 8.87469 22.6501C8.87469 22.8832 8.87469 23.1227 8.87469 23.3558C8.89359 23.3684 8.87469 23.3747 8.86209 23.3747ZM8.08083 22.9462C8.11233 22.8328 8.11233 22.732 8.09973 22.6312C8.01153 22.6312 7.94852 22.669 7.89182 22.7068C7.87292 22.7194 7.84772 22.7509 7.86662 22.7698C7.93592 22.8202 7.98633 22.8958 8.08083 22.9462ZM6.34821 22.2532C6.37971 22.3036 6.37971 22.3792 6.44901 22.3855C6.51202 22.3855 6.56872 22.3477 6.60023 22.2847C6.51832 22.1902 6.46162 22.1839 6.34821 22.2532Z" fill="black"/>
<path d="M12.6235 22.6627C12.4912 22.5808 12.4471 22.4233 12.2959 22.3981C12.2707 22.4044 12.2644 22.4422 12.2455 22.4674C12.1447 22.5934 11.9998 22.6186 11.8549 22.543C11.6974 22.4611 11.5902 22.3288 11.4894 22.1902C11.439 22.1209 11.3886 22.0516 11.2689 22.0201C11.6721 21.85 12.0817 21.7744 12.4597 21.5917C12.3274 21.4341 12.3904 21.201 12.5668 21.1002C12.7369 20.9994 13.0709 20.9931 13.2662 21.1632C13.3166 21.2073 13.3607 21.1821 13.3985 21.1569C13.5056 21.0939 13.6064 21.0246 13.7072 20.9553C13.8269 20.8734 13.9529 20.7915 14.0726 20.7096C14.1419 20.6655 14.1986 20.7096 14.2742 20.7159C14.0978 20.8356 13.934 20.949 13.7639 21.0561C13.7009 21.0939 13.6946 21.138 13.7387 21.1884C13.7891 21.2388 13.7954 21.327 13.8899 21.3396C13.9277 21.2199 13.9655 21.1002 14.0411 20.9994C14.0978 20.9238 14.1734 20.9742 14.2427 20.9679C14.2931 20.9616 14.2931 21.0057 14.2994 21.0435C14.3183 21.2514 14.4254 21.4215 14.5641 21.5728C14.5767 21.5854 14.583 21.598 14.5956 21.6106C14.5956 21.6106 14.5956 21.6169 14.5956 21.6232C14.5452 21.6736 14.5137 21.6295 14.4822 21.598C14.375 21.4971 14.2679 21.39 14.2049 21.2514C14.1923 21.2325 14.1797 21.2136 14.1419 21.2136C14.06 21.3396 14.0411 21.4845 14.0789 21.6547C13.9781 21.6232 13.8899 21.6358 13.8332 21.535C13.7765 21.4404 13.7009 21.3522 13.6442 21.2577C13.6001 21.1758 13.5497 21.201 13.493 21.2325C13.43 21.264 13.4237 21.3018 13.4552 21.3648C13.5812 21.6043 13.7072 21.85 13.8332 22.0894C13.8395 22.102 13.8458 22.1146 13.8521 22.1272C13.808 22.1209 13.7828 22.1083 13.7513 22.0831C13.6064 21.9571 13.4363 21.9193 13.2599 21.9634C13.1528 21.9886 13.0835 21.9319 13.0078 21.8941C13.0267 21.8185 13.0835 21.7744 13.0772 21.6988C13.0267 21.661 12.9511 21.6736 12.9133 21.6106C12.844 21.5161 12.8881 21.3774 13.0015 21.3522C13.0519 21.3396 13.1024 21.3522 13.1276 21.3963C13.1528 21.4404 13.1087 21.4719 13.0772 21.4971C13.0646 21.5034 13.0582 21.5097 13.0456 21.5224C13.0772 21.6043 13.1276 21.5791 13.1717 21.5476C13.2725 21.4719 13.304 21.3522 13.2725 21.2325C13.2662 21.2073 13.2536 21.1884 13.2284 21.1758C13.0519 21.1191 12.8755 21.0813 12.7054 21.1884C12.6046 21.2514 12.5605 21.3396 12.5605 21.4467C12.5605 21.5098 12.5857 21.535 12.6487 21.5161C12.7054 21.4971 12.7558 21.5097 12.7936 21.5602C12.6928 21.6421 12.6928 21.6421 12.7432 21.7618C12.8377 21.9634 12.907 22.1776 13.0078 22.3729C13.0204 22.3981 13.033 22.4296 13.0204 22.4611C12.907 22.4737 12.8755 22.3918 12.844 22.3099C12.7684 22.1398 12.6991 21.9697 12.6235 21.7996C12.6109 21.7618 12.5983 21.7051 12.5479 21.7114C12.4912 21.7114 12.4282 21.7429 12.3841 21.7807C12.3589 21.8059 12.3841 21.8374 12.3904 21.8689C12.4597 22.1272 12.5479 22.3792 12.6235 22.6627ZM11.7478 21.9886C11.6532 21.9949 11.5713 22.0201 11.4957 22.0579C11.5146 22.1335 11.5776 22.1713 11.6154 22.228C11.6911 22.354 11.8234 22.3918 11.9557 22.4044C12.0061 22.4107 12.0628 22.3981 12.1069 22.3603C12.1447 22.3288 12.1699 22.2847 12.1573 22.2343C12.1384 22.1839 12.1258 22.1272 12.0691 22.1083C12.0061 22.0894 11.9998 22.1524 11.9746 22.1839C11.9368 22.2343 11.8927 22.228 11.8423 22.2217C11.7919 22.2154 11.7604 22.1776 11.7415 22.1272C11.7289 22.0831 11.7541 22.0453 11.7478 21.9886ZM12.2203 21.8185C12.1195 21.85 12.025 21.8689 11.9368 21.9382C12.1447 21.9445 12.2203 22.1209 12.34 22.2343C12.3211 22.0894 12.2896 21.9571 12.2203 21.8185ZM13.2347 21.8059C13.3418 21.7996 13.4363 21.8563 13.5497 21.8437C13.5056 21.7492 13.4678 21.6736 13.4237 21.5917C13.4048 21.5602 13.3796 21.5224 13.3481 21.5602C13.2851 21.6295 13.2221 21.6988 13.2347 21.8059Z" fill="black"/>
<path d="M15.4587 19.5566C15.3515 19.6322 15.3767 19.6826 15.4524 19.7519C15.6225 19.8968 15.7863 20.0543 15.9501 20.2055C15.9753 20.2307 16.0068 20.2559 16.0194 20.2937C15.9753 20.3063 15.9375 20.2937 15.8997 20.2811C15.717 20.2433 15.5469 20.2433 15.3894 20.3631C15.32 20.4135 15.2381 20.3757 15.1562 20.382C15.1373 20.1677 15.2318 19.985 15.2885 19.8023C15.2633 19.7771 15.2507 19.7834 15.2318 19.8086C15.1058 19.9409 14.9798 20.0732 14.8538 20.2118C14.8286 20.237 14.8286 20.2622 14.8538 20.2937C14.9357 20.4009 15.0176 20.4891 15.1625 20.5269C15.3263 20.5647 15.3957 20.7789 15.3074 20.9175C15.2129 21.0687 15.068 21.1254 14.8979 21.1128C14.6711 21.0939 14.4758 20.9805 14.2931 20.8482C14.2868 20.8419 14.2805 20.8293 14.2742 20.8041C14.3372 20.7915 14.3498 20.7537 14.3435 20.697C14.3309 20.5017 14.4191 20.3505 14.6459 20.3568C14.6711 20.3568 14.6963 20.3505 14.7152 20.3315C14.6774 20.2433 14.5829 20.1992 14.5514 20.111C14.564 20.111 14.5766 20.1047 14.5829 20.1047C14.7215 20.1929 14.8034 20.1047 14.8916 20.0102C15.0113 19.8779 15.1373 19.7456 15.257 19.607C15.3074 19.544 15.3704 19.5503 15.4587 19.5566ZM14.4443 20.7915C14.4506 20.8167 14.4569 20.8356 14.4821 20.8482C14.5955 20.8986 14.7152 20.949 14.8412 20.9616C14.9861 20.9742 15.1562 20.8671 15.194 20.7411C15.2129 20.6718 15.194 20.6214 15.1436 20.5773C15.1058 20.5458 15.0617 20.5395 15.0302 20.5836C15.0932 20.7033 15.0932 20.7033 15.0869 20.7285C15.068 20.8041 14.9987 20.8545 14.9357 20.8356C14.8601 20.8104 14.8034 20.7033 14.8349 20.6277C14.8475 20.5899 14.8727 20.5584 14.8916 20.5206C14.8727 20.4828 14.8475 20.4576 14.8097 20.4702C14.7656 20.4828 14.7719 20.5206 14.7719 20.5584C14.7656 20.6277 14.7719 20.6907 14.753 20.76C14.7404 20.8104 14.6963 20.8167 14.6585 20.823C14.6081 20.8293 14.6207 20.7852 14.6081 20.7537C14.6018 20.7348 14.5955 20.7096 14.5703 20.7033C14.5199 20.7348 14.4821 20.76 14.4443 20.7915ZM15.4272 19.9031C15.3578 19.9976 15.3578 20.0984 15.3452 20.2118C15.4713 20.1803 15.5784 20.1677 15.717 20.1614C15.6162 20.0543 15.5406 19.9724 15.4272 19.9031ZM14.6207 20.4576C14.5451 20.4639 14.5073 20.5017 14.5136 20.5584C14.5136 20.5962 14.564 20.6025 14.5892 20.5899C14.6585 20.571 14.6207 20.5143 14.6207 20.4576Z" fill="black"/>
<path d="M3.04688 20.3883C3.20439 20.0921 3.3556 19.8149 3.50051 19.5314C3.51941 19.4999 3.53831 19.4684 3.58241 19.4936C3.75883 19.5944 3.94154 19.6826 4.11165 19.7897C4.31957 19.922 4.35107 20.1677 4.25026 20.3883C4.18096 20.5332 4.08645 20.6529 3.92894 20.7033C3.83443 20.7348 3.73993 20.7348 3.65172 20.697C3.56351 20.6592 3.47531 20.6214 3.3934 20.5773C3.27369 20.5143 3.15398 20.4639 3.04688 20.3883ZM4.07385 20.0858C4.07385 20.0228 4.05495 19.9724 4.00454 19.9283C3.92894 19.8527 3.83443 19.8149 3.75253 19.7645C3.68952 19.7267 3.65802 19.7456 3.62652 19.8023C3.56351 19.922 3.50681 20.0417 3.4375 20.1551C3.31779 20.3568 3.31779 20.3694 3.52571 20.4702C3.60132 20.508 3.67692 20.5458 3.77143 20.5269C3.91004 20.5017 4.08015 20.2559 4.07385 20.0858Z" fill="black"/>
<path d="M9.80095 21.8248C9.75684 21.6042 9.71904 21.3837 9.67494 21.1632C9.65604 21.0687 9.64344 20.9742 9.62453 20.8797C9.61193 20.8167 9.63084 20.7915 9.69384 20.7852C9.85765 20.76 9.85765 20.76 9.88285 20.9301C9.90806 21.1758 9.90806 21.1758 10.1475 21.138C10.2168 21.1254 10.2924 21.1065 10.3617 21.1002C10.431 21.0939 10.4436 21.0561 10.431 20.9994C10.4184 20.9238 10.4058 20.8482 10.3869 20.7726C10.3743 20.7033 10.3743 20.6592 10.4625 20.6592C10.5066 20.6529 10.557 20.634 10.6137 20.6403C10.6389 20.76 10.6704 20.8797 10.6893 20.9994C10.7145 21.201 10.746 21.4026 10.7964 21.6042C10.809 21.642 10.8027 21.6799 10.7586 21.6799C10.6956 21.6862 10.6326 21.7114 10.5633 21.6988C10.5444 21.5853 10.5192 21.4782 10.5003 21.3648C10.4877 21.2892 10.4562 21.2514 10.3743 21.2766C10.2609 21.3018 10.1475 21.3207 10.0341 21.3396C9.96476 21.3522 9.95846 21.39 9.97106 21.4404C10.0026 21.5349 9.99626 21.6357 10.0215 21.7303C10.0341 21.7807 10.0278 21.8185 9.95846 21.8185C9.91436 21.8122 9.86395 21.85 9.80095 21.8248Z" fill="black"/>
<path d="M13.2095 20.823C13.033 20.5143 12.8629 20.2182 12.6865 19.9094C12.8818 19.8023 13.0646 19.6952 13.2473 19.5944C13.304 19.5629 13.367 19.5314 13.4237 19.4936C13.4867 19.4558 13.5182 19.4747 13.556 19.5314C13.5875 19.5944 13.556 19.607 13.5119 19.6322C13.367 19.7141 13.2221 19.8023 13.0709 19.8842C13.0141 19.9157 12.9763 19.9535 13.0267 20.0165C13.0709 20.0732 13.0772 20.1804 13.1969 20.1047C13.3229 20.0228 13.4552 19.9598 13.5875 19.8842C13.6127 19.8716 13.6379 19.8527 13.6757 19.8527C13.6883 19.8716 13.6946 19.9031 13.7135 19.922C13.745 19.9661 13.7261 19.9913 13.682 20.0165C13.5497 20.0921 13.4174 20.1741 13.2788 20.2497C13.2095 20.2875 13.2158 20.3316 13.241 20.3883L13.2473 20.3946C13.3418 20.5647 13.3544 20.5647 13.5245 20.4702C13.6694 20.382 13.8143 20.3001 13.9592 20.2182C14.0033 20.2308 14.0033 20.2749 14.0285 20.3001C14.0537 20.3253 14.0474 20.3631 14.0159 20.382C13.745 20.5269 13.4867 20.6718 13.2095 20.823Z" fill="black"/>
<path d="M6.34204 21.6421C6.40505 21.2892 6.46175 20.949 6.52475 20.6025C6.76417 20.6466 6.99729 20.6592 7.2241 20.7348C7.38162 20.7915 7.45722 20.9238 7.43202 21.0939C7.41312 21.2073 7.31231 21.3207 7.1422 21.3396C7.00989 21.3522 6.89018 21.3144 6.76417 21.3018C6.68227 21.2955 6.65706 21.327 6.64446 21.3963C6.62556 21.4908 6.62556 21.5853 6.58146 21.6799C6.49955 21.6673 6.43025 21.6547 6.34204 21.6421ZM6.95949 21.1695C7.09179 21.1695 7.1674 21.1254 7.1863 21.0435C7.2052 20.9679 7.1485 20.886 7.06029 20.8545C6.97839 20.8293 6.89018 20.8167 6.80197 20.8041C6.77677 20.7978 6.75787 20.8041 6.74527 20.8293C6.72007 20.9175 6.67596 21.012 6.70747 21.1002C6.73267 21.1632 6.82718 21.1443 6.89018 21.1569C6.91538 21.1695 6.94688 21.1695 6.95949 21.1695Z" fill="black"/>
<path d="M15.7611 20.4261C15.7548 20.5017 15.7107 20.5269 15.654 20.5332C15.591 20.5395 15.5595 20.4954 15.5532 20.445C15.5469 20.3883 15.5847 20.3379 15.6477 20.3379C15.717 20.3253 15.7422 20.3757 15.7611 20.4261Z" fill="black"/>
</svg>
